<?xml version="1.0" encoding="UTF-8"?>
<svg width="521px" height="470px" viewBox="0 0 521 470" version="1.1" xmlns="http://www.w3.org/2000/svg" xmlns:xlink="http://www.w3.org/1999/xlink">
    <!-- Generator: Sketch 49.3 (51167) - http://www.bohemiancoding.com/sketch -->
    <title>Slice 1</title>
    <desc>Created with Sketch.</desc>
    <defs></defs>
    <g id="Page-1" stroke="none" stroke-width="1" fill="none" fill-rule="evenodd">
        <g id="AWS_PArtner_Select_Badge" transform="translate(1.000000, 0.000000)">
            <polygon id="Stroke-1" stroke="#DCDCDC" points="6 468 476 468 476 15 6 15"></polygon>
            <polygon id="Stroke-2" stroke="#E0E0E0" points="5 468 477 468 477 14 5 14"></polygon>
            <polygon id="Stroke-3" stroke="#E8E8E8" points="4 468 478 468 478 13 4 13"></polygon>
            <polygon id="Stroke-4" stroke="#F4F4F4" points="3 468 479 468 479 12 3 12"></polygon>
            <path d="M2,468 L480,468 L480,11 L2,11 L2,468 Z M1,468 L481,468 L481,10 L1,10 L1,468 Z M0,468 L482,468 L482,9 L0,9 L0,468 Z" id="Stroke-5" stroke="#FFFFFF"></path>
            <path d="M6,462 L476,462" id="Stroke-6" stroke="#DCDCDC"></path>
            <path d="M6,463 L476,463" id="Stroke-7" stroke="#DDDDDD"></path>
            <path d="M6,464 L476,464" id="Stroke-8" stroke="#DFDFDF"></path>
            <path d="M6,465 L476,465" id="Stroke-9" stroke="#E2E2E2"></path>
            <path d="M6,466 L476,466" id="Stroke-10" stroke="#E6E6E6"></path>
            <path d="M6,467 L476,467" id="Stroke-11" stroke="#EBEBEB"></path>
            <path d="M6,468 L476,468" id="Stroke-12" stroke="#F1F1F1"></path>
            <polygon id="Fill-13" fill="#242F3D" points="6 22 476 22 476 9 6 9"></polygon>
            <polygon id="Fill-14" fill="#FFFFFF" points="6 461 476 461 476 22 6 22"></polygon>
            <path d="M147.6,113.23 C148.72,113.93 150.4,114.49 152.5,114.91 C154.6,115.47 156.84,115.61 159.08,115.61 C161.32,115.61 163.28,115.33 165.1,114.77 C166.92,114.21 168.46,113.37 169.86,112.39 C171.12,111.41 172.24,110.15 172.94,108.61 C173.64,107.07 174.06,105.53 174.06,103.57 C174.06,101.33 173.36,99.37 172.1,97.55 C170.84,95.87 168.6,94.47 165.52,93.49 L159.5,91.53 C157.26,90.83 155.58,89.99 154.74,89.15 C153.9,88.31 153.48,87.33 153.48,86.07 C153.48,84.39 154.18,82.99 155.44,82.29 C156.84,81.45 158.66,81.03 161.18,81.03 C164.26,81.03 166.92,81.59 169.44,82.71 C170.14,82.99 170.7,83.27 171.12,83.27 C171.82,83.27 172.1,82.85 172.1,81.87 L172.1,80.19 C172.1,79.63 171.96,79.07 171.68,78.79 C171.4,78.37 170.98,77.95 170.42,77.67 C170,77.39 169.3,77.11 168.6,76.97 C167.9,76.69 167.06,76.55 166.22,76.27 C165.38,76.13 164.4,75.85 163.42,75.85 C162.44,75.57 161.46,75.57 160.48,75.57 C158.52,75.57 156.84,75.85 155.16,76.27 C153.48,76.83 151.94,77.53 150.68,78.51 C149.42,79.49 148.44,80.61 147.6,82.01 C146.76,83.41 146.48,84.95 146.48,86.77 C146.48,89.01 147.18,91.11 148.58,92.93 C149.98,94.89 152.22,96.29 155.44,97.27 L161.6,99.23 C163.7,99.93 165.1,100.63 165.94,101.47 C166.78,102.31 167.06,103.29 167.06,104.41 C167.06,106.09 166.36,107.49 164.82,108.47 C163.28,109.45 161.32,109.87 158.52,109.87 C156.84,109.87 155.16,109.73 153.48,109.31 C151.8,109.03 150.26,108.47 148.72,107.77 C148.3,107.63 147.88,107.49 147.6,107.35 C147.32,107.21 147.04,107.21 146.76,107.21 C146.06,107.21 145.78,107.63 145.78,108.61 L145.78,110.71 C145.78,111.13 145.92,111.55 146.06,111.97 C146.48,112.53 146.9,112.81 147.6,113.23" id="Fill-15" fill="#252F3E"></path>
            <path d="M75.22,92.51 C73.68,92.23 72.14,92.23 70.74,92.23 C66.4,92.23 62.9,93.35 60.24,95.59 C57.58,97.83 56.32,100.77 56.32,104.41 C56.32,107.91 57.3,110.57 59.4,112.67 C61.5,114.77 64.3,115.75 67.94,115.75 C72.98,115.75 77.18,113.79 80.54,109.87 C80.96,110.85 81.38,111.69 81.8,112.39 C82.22,113.09 82.78,113.79 83.34,114.35 C83.76,114.77 84.18,114.91 84.6,114.91 C84.88,114.91 85.3,114.77 85.72,114.49 L88.38,112.67 C88.94,112.25 89.22,111.83 89.22,111.41 C89.22,111.13 89.08,110.85 88.94,110.43 C88.38,109.31 87.82,108.33 87.54,107.35 C87.26,106.37 87.12,105.11 87.12,103.57 L87.12,89.57 C87.12,84.95 86,81.45 83.62,79.07 C81.24,76.69 77.6,75.57 72.42,75.57 C70.04,75.57 67.8,75.85 65.7,76.41 C63.74,76.97 61.92,77.53 60.38,78.37 C59.82,78.65 59.4,78.93 59.26,79.21 C58.98,79.49 58.98,80.05 58.98,80.75 L58.98,82.85 C58.98,83.69 59.26,84.25 59.82,84.25 C59.96,84.25 60.24,84.25 60.52,84.11 C60.8,83.97 61.36,83.83 62.06,83.55 C63.6,82.99 65.14,82.43 66.68,82.15 C68.22,81.73 69.76,81.59 71.3,81.59 C74.66,81.59 76.9,82.29 78.3,83.55 C79.7,84.81 80.26,87.19 80.26,90.41 L80.26,93.49 C78.44,93.07 76.9,92.79 75.22,92.51 Z M80.12,100.07 C80.12,101.47 79.98,102.73 79.7,103.71 C79.42,104.69 79,105.67 78.3,106.37 C77.18,107.63 75.78,108.61 74.24,109.03 C72.7,109.59 71.16,109.87 69.76,109.87 C67.8,109.87 66.26,109.31 65.28,108.33 C64.3,107.35 63.74,105.81 63.74,103.85 C63.74,101.75 64.44,100.07 65.84,98.95 C67.24,97.83 69.34,97.27 72.14,97.27 C73.4,97.27 74.8,97.41 76.2,97.55 C77.6,97.69 78.86,97.97 80.12,98.25 L80.12,100.07 Z" id="Fill-16" fill="#252F3E"></path>
            <g id="Group-20" transform="translate(51.000000, 76.000000)">
                <path d="M50.68,36.53 C50.96,37.37 51.24,37.93 51.52,38.21 C51.8,38.49 52.36,38.63 53.2,38.63 L56.84,38.63 C57.68,38.63 58.24,38.49 58.52,38.21 C58.8,37.93 59.08,37.37 59.36,36.53 L65.94,8.95 L72.66,36.53 C72.8,37.37 73.08,37.93 73.5,38.21 C73.78,38.49 74.48,38.63 75.18,38.63 L78.82,38.63 C79.52,38.63 80.08,38.49 80.5,38.21 C80.78,37.93 81.2,37.37 81.34,36.53 L91.7,3.49 C91.84,3.07 91.98,2.65 91.98,2.51 C91.98,2.23 92.12,2.09 92.12,1.81 C92.12,1.11 91.84,0.83 91.14,0.83 L87.22,0.83 C86.38,0.83 85.82,0.97 85.54,1.25 C85.26,1.53 84.98,2.09 84.7,2.93 L77.28,31.63 L70.42,2.79 C70.28,1.95 70,1.39 69.58,1.11 C69.3,0.83 68.6,0.69 67.9,0.69 L64.4,0.69 C63.56,0.69 63,0.83 62.72,1.11 C62.44,1.39 62.16,1.95 61.88,2.79 L55.16,31.07 L48.02,2.79 C47.74,1.95 47.46,1.39 47.18,1.11 C46.9,0.83 46.34,0.69 45.5,0.69 L41.3,0.69 C40.6,0.69 40.32,0.97 40.32,1.67 C40.32,1.95 40.46,2.51 40.74,3.35 L50.68,36.53" id="Fill-17" fill="#252F3E"></path>
                <path d="M114.1,57.25 C98.42,63.97 81.2,67.19 65.66,67.19 C42.56,67.19 20.16,60.89 2.1,50.25 C0.56,49.27 -0.7,50.95 0.7,52.21 C17.5,67.33 39.62,76.43 64.26,76.43 C81.76,76.43 102.2,70.97 116.34,60.47 C118.44,58.79 116.48,56.27 114.1,57.25" id="Fill-19" fill="#FF9900"></path>
            </g>
            <path d="M156.28,127.37 C155.02,128.21 155.3,129.47 156.56,129.33 C161.04,128.77 171.26,127.51 172.94,129.89 C174.76,132.13 170.98,141.65 169.3,145.99 C168.74,147.25 169.86,147.81 171.12,146.83 C178.68,140.53 180.64,127.23 179.1,125.41 C177.56,123.31 164.26,121.77 156.28,127.37" id="Fill-21" fill="#FF9900"></path>
            <path d="M212.84,105.81 C212.56,105.81 212.28,105.67 212.28,105.25 L212.28,82.15 C212.28,81.87 212.42,81.59 212.84,81.59 L213.54,81.59 C213.96,81.59 214.1,81.73 214.1,82.15 L214.24,83.55 C215.22,82.71 216.34,82.15 217.32,81.73 C218.3,81.31 219.28,81.17 220.4,81.17 C222.64,81.17 224.32,82.01 225.58,83.55 C226.84,85.09 227.54,87.33 227.54,89.99 C227.54,92.79 226.84,95.03 225.58,96.71 C224.18,98.39 222.5,99.23 220.12,99.23 C218.02,99.23 216.2,98.39 214.38,96.85 L214.38,105.25 C214.38,105.53 214.24,105.81 213.82,105.81 L212.84,105.81 Z M219.84,97.41 C221.66,97.41 223.06,96.85 224.04,95.59 C225.02,94.33 225.44,92.51 225.44,90.13 C225.44,85.37 223.62,82.99 219.98,82.99 C218.16,82.99 216.2,83.69 214.38,85.23 L214.38,95.17 C215.36,96.01 216.2,96.57 217.04,96.99 C217.88,97.13 218.86,97.41 219.84,97.41 Z" id="Fill-22" fill="#252F3E"></path>
            <path d="M235.8,99.09 C234.26,99.09 233,98.67 232.02,97.69 C231.04,96.85 230.62,95.59 230.62,94.05 C230.62,92.37 231.18,91.11 232.3,90.13 C233.42,89.15 234.96,88.73 236.92,88.73 C238.46,88.73 240,89.01 241.82,89.57 L241.82,86.77 C241.82,85.37 241.54,84.39 240.84,83.83 C240.14,83.27 239.16,82.99 237.62,82.99 C236.08,82.99 234.4,83.27 232.72,83.83 C232.58,83.83 232.3,83.97 232.16,83.97 C231.88,83.97 231.88,83.83 231.88,83.55 L231.88,82.85 C231.88,82.71 231.88,82.57 232.02,82.43 C232.16,82.29 232.16,82.29 232.3,82.15 C234.12,81.45 235.94,81.03 238.04,81.03 C240,81.03 241.54,81.45 242.52,82.29 C243.5,83.13 243.92,84.39 243.92,86.07 L243.92,98.11 C243.92,98.39 243.78,98.67 243.36,98.67 L242.66,98.67 C242.38,98.67 242.1,98.53 242.1,98.11 L241.96,96.71 C240,98.39 237.9,99.09 235.8,99.09 Z M236.08,97.41 C236.92,97.41 237.9,97.27 238.88,96.85 C239.86,96.43 240.84,96.01 241.96,95.31 L241.96,91.11 C240.42,90.69 239.02,90.55 237.48,90.55 C234.26,90.55 232.72,91.81 232.72,94.19 C232.72,95.17 233,96.01 233.56,96.57 C234.12,97.13 234.96,97.41 236.08,97.41 Z" id="Fill-23" fill="#252F3E"></path>
            <path d="M249.66,98.81 C249.38,98.81 249.1,98.67 249.1,98.25 L249.1,82.15 C249.1,81.87 249.24,81.59 249.66,81.59 L250.36,81.59 C250.78,81.59 250.92,81.73 250.92,82.15 L251.06,84.11 C251.9,83.13 252.74,82.43 253.58,82.15 C254.42,81.73 255.4,81.59 256.38,81.59 C256.8,81.59 257.08,81.59 257.22,81.59 C257.5,81.59 257.78,81.73 257.78,82.15 L257.78,82.99 C257.78,83.13 257.78,83.13 257.64,83.27 C257.64,83.41 257.5,83.41 257.36,83.41 C257.22,83.41 256.94,83.41 256.8,83.41 C256.66,83.41 256.38,83.41 256.1,83.41 C255.12,83.41 254.14,83.55 253.3,83.97 C252.46,84.39 251.76,84.95 250.92,85.79 L250.92,98.25 C250.92,98.53 250.78,98.81 250.36,98.81 L249.66,98.81" id="Fill-24" fill="#252F3E"></path>
            <path d="M266.74,98.95 C265.34,98.95 264.36,98.53 263.66,97.83 C262.96,97.13 262.54,96.15 262.54,94.75 L262.54,83.41 L259.88,83.41 C259.6,83.41 259.32,83.27 259.32,82.85 L259.32,82.57 C259.32,82.43 259.32,82.29 259.46,82.15 C259.46,82.01 259.6,82.01 259.88,82.01 L262.68,81.73 L262.96,77.25 C262.96,77.11 263.1,76.97 263.1,76.83 C263.24,76.69 263.24,76.69 263.52,76.69 L264.08,76.69 C264.36,76.69 264.64,76.83 264.64,77.25 L264.64,81.73 L269.54,81.73 C269.82,81.73 270.1,81.87 270.1,82.29 L270.1,82.99 C270.1,83.27 269.96,83.55 269.54,83.55 L264.64,83.55 L264.64,94.89 C264.64,95.87 264.78,96.43 265.2,96.85 C265.62,97.27 266.32,97.41 267.16,97.41 C267.86,97.41 268.42,97.41 268.84,97.27 C269.12,97.27 269.26,97.13 269.4,97.13 C269.54,97.13 269.68,97.13 269.68,97.13 C269.96,97.13 270.1,97.27 270.1,97.55 L270.1,98.11 C270.1,98.53 269.96,98.67 269.68,98.81 C268.84,98.81 267.86,98.95 266.74,98.95" id="Fill-25" fill="#252F3E"></path>
            <path d="M274.3,98.81 C274.02,98.81 273.74,98.67 273.74,98.25 L273.74,82.15 C273.74,81.87 273.88,81.59 274.3,81.59 L275,81.59 C275.42,81.59 275.56,81.73 275.56,82.15 L275.7,83.55 C276.82,82.71 277.94,82.15 279.2,81.73 C280.46,81.31 281.58,81.03 282.7,81.03 C284.38,81.03 285.64,81.45 286.48,82.29 C287.32,83.13 287.74,84.39 287.74,86.21 L287.74,98.11 C287.74,98.39 287.6,98.67 287.18,98.67 L286.2,98.67 C285.92,98.67 285.64,98.53 285.64,98.11 L285.64,87.19 C285.64,85.65 285.36,84.67 284.8,83.97 C284.24,83.27 283.26,82.99 282.14,82.99 C279.9,82.99 277.66,83.69 275.56,85.23 L275.56,98.39 C275.56,98.67 275.42,98.95 275,98.95 L274.3,98.95" id="Fill-26" fill="#252F3E"></path>
            <path d="M300.34,99.23 C297.68,99.23 295.58,98.53 294.32,96.99 C292.92,95.45 292.22,93.21 292.22,90.13 C292.22,87.33 292.92,85.09 294.32,83.55 C295.72,82.01 297.68,81.17 300.06,81.17 C302.16,81.17 303.7,81.73 304.82,82.99 C305.94,84.11 306.5,85.79 306.5,88.03 C306.5,88.87 306.5,89.57 306.36,90.13 C306.36,90.41 306.08,90.69 305.8,90.69 L294.32,90.69 C294.32,93.07 294.88,94.89 295.86,96.01 C296.84,97.13 298.52,97.69 300.62,97.69 C302.3,97.69 303.84,97.41 305.24,96.85 C305.52,96.71 305.8,96.71 305.8,96.71 C305.94,96.71 305.94,96.71 306.08,96.85 C306.08,96.99 306.22,96.99 306.22,97.13 L306.22,97.69 C306.22,98.11 306.08,98.25 305.8,98.39 C303.98,98.81 302.3,99.23 300.34,99.23 Z M304.54,89.01 C304.54,88.73 304.54,88.31 304.54,87.89 C304.54,86.21 304.12,85.09 303.42,84.25 C302.58,83.41 301.46,82.99 299.92,82.99 C296.28,82.99 294.46,84.95 294.18,89.01 L304.54,89.01 Z" id="Fill-27" fill="#252F3E"></path>
            <path d="M311.12,98.81 C310.84,98.81 310.56,98.67 310.56,98.25 L310.56,82.15 C310.56,81.87 310.7,81.59 311.12,81.59 L311.82,81.59 C312.24,81.59 312.38,81.73 312.38,82.15 L312.52,84.11 C313.36,83.13 314.2,82.43 315.04,82.15 C315.88,81.73 316.86,81.59 317.84,81.59 C318.26,81.59 318.54,81.59 318.68,81.59 C318.96,81.59 319.24,81.73 319.24,82.15 L319.24,82.99 C319.24,83.13 319.24,83.13 319.1,83.27 C319.1,83.41 318.96,83.41 318.82,83.41 C318.68,83.41 318.4,83.41 318.26,83.41 C318.12,83.41 317.84,83.41 317.56,83.41 C316.58,83.41 315.6,83.55 314.76,83.97 C313.92,84.39 313.22,84.95 312.38,85.79 L312.38,98.25 C312.38,98.53 312.24,98.81 311.82,98.81 L311.12,98.81" id="Fill-28" fill="#252F3E"></path>
            <path d="M212.84,136.47 C212.56,136.47 212.28,136.33 212.28,135.91 L212.28,119.95 C212.28,119.67 212.42,119.39 212.84,119.39 L213.54,119.39 C213.96,119.39 214.1,119.53 214.1,119.95 L214.24,121.35 C215.36,120.51 216.48,119.95 217.74,119.53 C219,119.11 220.12,118.83 221.24,118.83 C222.92,118.83 224.18,119.25 225.02,120.09 C225.86,120.93 226.28,122.19 226.28,124.01 L226.28,135.91 C226.28,136.19 226.14,136.47 225.72,136.47 L224.74,136.47 C224.46,136.47 224.18,136.33 224.18,135.91 L224.18,124.85 C224.18,123.31 223.9,122.33 223.34,121.63 C222.78,120.93 221.8,120.65 220.68,120.65 C218.44,120.65 216.2,121.35 214.1,122.89 L214.1,136.05 C214.1,136.33 213.96,136.61 213.54,136.61 L212.84,136.61" id="Fill-29" fill="#252F3E"></path>
            <path d="M238.88,137.03 C236.22,137.03 234.12,136.33 232.86,134.79 C231.46,133.25 230.76,131.01 230.76,127.93 C230.76,125.13 231.46,122.89 232.86,121.35 C234.26,119.81 236.22,118.97 238.6,118.97 C240.7,118.97 242.24,119.53 243.36,120.79 C244.48,121.91 245.04,123.59 245.04,125.83 C245.04,126.67 245.04,127.37 244.9,127.93 C244.9,128.21 244.62,128.49 244.34,128.49 L232.86,128.49 C232.86,130.87 233.42,132.69 234.4,133.81 C235.38,134.93 237.06,135.49 239.16,135.49 C240.84,135.49 242.38,135.21 243.78,134.65 C244.06,134.51 244.34,134.51 244.34,134.51 C244.48,134.51 244.48,134.51 244.62,134.65 C244.62,134.79 244.76,134.79 244.76,134.93 L244.76,135.49 C244.76,135.91 244.62,136.05 244.34,136.19 C242.66,136.61 240.84,137.03 238.88,137.03 Z M243.08,126.67 C243.08,126.39 243.08,125.97 243.08,125.55 C243.08,123.87 242.66,122.75 241.96,121.91 C241.12,121.07 240,120.65 238.46,120.65 C234.82,120.65 233,122.61 232.72,126.67 L243.08,126.67 Z" id="Fill-30" fill="#252F3E"></path>
            <path d="M254.56,136.75 C253.16,136.75 252.18,136.33 251.48,135.63 C250.78,134.93 250.36,133.95 250.36,132.55 L250.36,121.07 L247.7,121.07 C247.42,121.07 247.14,120.93 247.14,120.51 L247.14,120.23 C247.14,120.09 247.14,119.95 247.28,119.81 C247.28,119.67 247.42,119.67 247.7,119.67 L250.5,119.39 L250.78,114.91 C250.78,114.77 250.92,114.63 250.92,114.49 C251.06,114.35 251.06,114.35 251.34,114.35 L251.9,114.35 C252.18,114.35 252.46,114.49 252.46,114.91 L252.46,119.39 L257.36,119.39 C257.64,119.39 257.92,119.53 257.92,119.95 L257.92,120.65 C257.92,120.93 257.78,121.21 257.36,121.21 L252.46,121.21 L252.46,132.55 C252.46,133.53 252.6,134.09 253.02,134.51 C253.44,134.93 254.14,135.07 254.98,135.07 C255.68,135.07 256.24,135.07 256.66,134.93 C256.94,134.93 257.08,134.79 257.22,134.79 C257.36,134.79 257.5,134.79 257.5,134.79 C257.78,134.79 257.92,134.93 257.92,135.21 L257.92,135.77 C257.92,136.19 257.78,136.33 257.5,136.47 C256.66,136.61 255.68,136.75 254.56,136.75" id="Fill-31" fill="#252F3E"></path>
            <path d="M265.62,136.47 C265.34,136.47 265.06,136.33 264.92,136.05 L259.6,120.23 C259.46,119.95 259.46,119.81 259.46,119.67 C259.46,119.53 259.6,119.39 259.88,119.39 L261,119.39 C261.28,119.39 261.42,119.53 261.56,119.81 L266.18,134.23 L270.24,119.81 C270.38,119.53 270.52,119.39 270.94,119.39 L272.2,119.39 C272.48,119.39 272.76,119.53 272.9,119.81 L276.96,134.23 L281.72,119.67 C281.86,119.39 282,119.25 282.28,119.25 L283.26,119.25 C283.54,119.25 283.68,119.39 283.68,119.53 C283.68,119.67 283.68,119.81 283.54,120.09 L277.94,135.91 C277.8,136.19 277.66,136.33 277.24,136.33 L276.12,136.33 C275.84,136.33 275.56,136.19 275.42,135.91 L271.36,121.49 L267.3,135.91 C267.16,136.19 267.02,136.33 266.6,136.33 L265.62,136.33" id="Fill-32" fill="#252F3E"></path>
            <path d="M293.76,137.03 C291.24,137.03 289.28,136.19 287.88,134.65 C286.48,133.11 285.78,130.87 285.78,127.93 C285.78,125.13 286.48,122.89 287.88,121.21 C289.28,119.67 291.24,118.83 293.76,118.83 C296.28,118.83 298.24,119.67 299.64,121.21 C301.04,122.75 301.74,124.99 301.74,127.93 C301.74,130.73 301.04,132.97 299.64,134.65 C298.24,136.19 296.28,137.03 293.76,137.03 Z M293.76,135.21 C297.68,135.21 299.64,132.83 299.64,127.93 C299.64,123.03 297.68,120.65 293.76,120.65 C289.84,120.65 287.88,123.03 287.88,127.93 C287.88,132.83 289.84,135.21 293.76,135.21 Z" id="Fill-33" fill="#252F3E"></path>
            <path d="M306.64,136.47 C306.36,136.47 306.08,136.33 306.08,135.91 L306.08,119.95 C306.08,119.67 306.22,119.39 306.64,119.39 L307.34,119.39 C307.76,119.39 307.9,119.53 307.9,119.95 L308.04,121.91 C308.88,120.93 309.72,120.23 310.56,119.95 C311.4,119.53 312.38,119.39 313.36,119.39 C313.78,119.39 314.06,119.39 314.2,119.39 C314.48,119.39 314.76,119.53 314.76,119.95 L314.76,120.79 C314.76,120.93 314.76,120.93 314.62,121.07 C314.48,121.21 314.48,121.21 314.34,121.21 C314.2,121.21 313.92,121.21 313.78,121.21 C313.64,121.21 313.36,121.21 313.08,121.21 C312.1,121.21 311.12,121.35 310.28,121.77 C309.44,122.19 308.74,122.75 307.9,123.59 L307.9,136.05 C307.9,136.33 307.76,136.61 307.34,136.61 L306.64,136.61" id="Fill-34" fill="#252F3E"></path>
            <path d="M318.26,136.47 C317.98,136.47 317.7,136.33 317.7,135.91 L317.7,111.83 C317.7,111.55 317.84,111.27 318.26,111.27 L319.24,111.27 C319.52,111.27 319.8,111.41 319.8,111.83 L319.8,126.95 L327.92,119.67 C328.2,119.39 328.48,119.39 328.76,119.39 L330.02,119.39 C330.3,119.39 330.44,119.53 330.44,119.67 C330.44,119.81 330.3,119.95 330.02,120.23 L321.76,127.51 L330.72,135.77 C330.86,135.91 331,136.05 331,136.19 C331,136.47 330.86,136.47 330.58,136.47 L329.18,136.47 C328.9,136.47 328.62,136.33 328.48,136.19 L319.8,128.07 L319.8,135.91 C319.8,136.19 319.66,136.47 319.24,136.47 L318.26,136.47" id="Fill-35" fill="#252F3E"></path>
            <path d="M57.875,244.297 C55.979,243.599 54.615,242.742 53.781,241.727 C52.948,240.711 52.531,239.427 52.531,237.875 C52.531,235.865 53.273,234.263 54.758,233.07 C56.242,231.878 58.234,231.281 60.734,231.281 C62.818,231.281 64.865,231.667 66.875,232.438 L66.875,236.078 C64.802,235.443 62.88,235.125 61.109,235.125 C58.599,235.125 57.344,235.932 57.344,237.547 C57.344,238.151 57.56,238.643 57.992,239.023 C58.424,239.404 59.24,239.807 60.437,240.234 L62.813,241.109 C64.792,241.828 66.203,242.674 67.047,243.648 C67.891,244.622 68.312,245.885 68.312,247.438 C68.312,249.635 67.523,251.37 65.945,252.641 C64.367,253.911 62.203,254.547 59.453,254.547 C58.255,254.547 57.06,254.435 55.867,254.211 C54.674,253.987 53.651,253.682 52.797,253.297 L52.797,249.641 C53.859,249.964 55,250.221 56.219,250.414 C57.437,250.607 58.536,250.703 59.516,250.703 C60.776,250.703 61.747,250.474 62.43,250.016 C63.112,249.557 63.453,248.901 63.453,248.047 C63.453,247.391 63.245,246.87 62.828,246.484 C62.411,246.099 61.573,245.672 60.313,245.203 L57.875,244.297 Z M75.454,246.953 C75.538,248.37 75.962,249.391 76.728,250.016 C77.493,250.641 78.699,250.953 80.345,250.953 C81.772,250.953 83.434,250.687 85.329,250.156 L85.329,253.266 C84.59,253.651 83.702,253.951 82.665,254.164 C81.629,254.378 80.559,254.484 79.454,254.484 C76.736,254.484 74.668,253.747 73.251,252.273 C71.835,250.799 71.126,248.646 71.126,245.812 C71.126,243.083 71.829,240.961 73.236,239.445 C74.642,237.93 76.595,237.172 79.095,237.172 C81.21,237.172 82.837,237.753 83.978,238.914 C85.118,240.076 85.689,241.734 85.689,243.891 C85.689,244.359 85.658,244.893 85.595,245.492 C85.533,246.091 85.454,246.578 85.361,246.953 L75.454,246.953 Z M78.939,240.406 C77.887,240.406 77.059,240.719 76.454,241.344 C75.85,241.969 75.507,242.88 75.423,244.078 L81.689,244.078 L81.689,243.531 C81.689,241.448 80.772,240.406 78.939,240.406 Z M96.47,253.687 C95.574,254.042 94.615,254.219 93.595,254.219 C90.709,254.219 89.266,252.609 89.266,249.391 L89.266,230.312 L93.938,230.312 L93.938,249.016 C93.938,249.609 94.04,250.029 94.243,250.273 C94.446,250.518 94.782,250.641 95.251,250.641 C95.553,250.641 95.959,250.609 96.47,250.547 L96.47,253.687 Z M103.166,246.953 C103.25,248.37 103.674,249.391 104.44,250.016 C105.206,250.641 106.411,250.953 108.057,250.953 C109.484,250.953 111.146,250.687 113.041,250.156 L113.041,253.266 C112.302,253.651 111.414,253.951 110.377,254.164 C109.341,254.378 108.271,254.484 107.166,254.484 C104.448,254.484 102.38,253.747 100.963,252.273 C99.547,250.799 98.838,248.646 98.838,245.812 C98.838,243.083 99.541,240.961 100.948,239.445 C102.354,237.93 104.307,237.172 106.807,237.172 C108.922,237.172 110.549,237.753 111.69,238.914 C112.831,240.076 113.401,241.734 113.401,243.891 C113.401,244.359 113.37,244.893 113.307,245.492 C113.245,246.091 113.166,246.578 113.073,246.953 L103.166,246.953 Z M106.651,240.406 C105.599,240.406 104.771,240.719 104.166,241.344 C103.562,241.969 103.219,242.88 103.135,244.078 L109.401,244.078 L109.401,243.531 C109.401,241.448 108.484,240.406 106.651,240.406 Z M128.791,253.297 C128.218,253.641 127.525,253.904 126.713,254.086 C125.9,254.268 125.057,254.359 124.182,254.359 C121.577,254.359 119.588,253.633 118.213,252.18 C116.838,250.727 116.15,248.635 116.15,245.906 C116.15,243.198 116.877,241.086 118.33,239.57 C119.783,238.055 121.796,237.297 124.369,237.297 C125.932,237.297 127.374,237.635 128.697,238.312 L128.697,241.422 C127.437,241.057 126.286,240.875 125.244,240.875 C123.744,240.875 122.643,241.255 121.939,242.016 C121.236,242.776 120.885,243.974 120.885,245.609 L120.885,246.062 C120.885,247.687 121.231,248.878 121.924,249.633 C122.617,250.388 123.692,250.766 125.15,250.766 C126.192,250.766 127.406,250.573 128.791,250.187 L128.791,253.297 Z M141.849,253.578 C140.693,254.026 139.401,254.25 137.974,254.25 C136.161,254.25 134.823,253.826 133.958,252.977 C133.094,252.128 132.661,250.807 132.661,249.016 L132.661,241.109 L130.193,241.109 L130.193,238.219 L132.786,237.719 L133.49,233.234 L137.333,233.234 L137.333,237.641 L141.755,237.641 L141.755,241.109 L137.333,241.109 L137.333,248.781 C137.333,249.469 137.505,249.951 137.849,250.227 C138.193,250.503 138.771,250.641 139.583,250.641 C140.24,250.641 140.995,250.578 141.849,250.453 L141.849,253.578 Z" id="Fill-36" fill="#535B64"></path>
            <path d="M77.656,324.75 C70.406,324.75 64.922,322.711 61.203,318.633 C57.484,314.555 55.625,308.547 55.625,300.609 C55.625,292.724 57.552,286.706 61.406,282.555 C65.26,278.404 70.792,276.328 78,276.328 C81.302,276.328 84.521,276.828 87.656,277.828 C87.927,277.922 88.13,278.06 88.266,278.242 C88.401,278.424 88.469,278.719 88.469,279.125 L88.469,280.609 C88.469,281.203 88.198,281.5 87.656,281.5 C87.427,281.5 86.771,281.365 85.688,281.094 C84.688,280.823 83.508,280.607 82.148,280.445 C80.789,280.284 79.562,280.203 78.469,280.203 C72.26,280.203 67.625,281.826 64.562,285.07 C61.5,288.315 59.969,293.198 59.969,299.719 L59.969,301.422 C59.969,314.391 65.979,320.875 78,320.875 C80.948,320.875 83.849,320.49 86.703,319.719 C87.516,319.49 88.057,319.375 88.328,319.375 C88.87,319.375 89.141,319.672 89.141,320.266 L89.141,321.75 C89.141,322.167 89.073,322.464 88.938,322.641 C88.802,322.818 88.599,322.953 88.328,323.047 C84.932,324.182 81.375,324.75 77.656,324.75 Z M110.909,325.016 C105.919,325.016 102.041,323.419 99.276,320.227 C96.51,317.034 95.127,312.578 95.127,306.859 C95.127,301.151 96.51,296.711 99.276,293.539 C102.041,290.367 105.919,288.781 110.909,288.781 C115.898,288.781 119.776,290.367 122.541,293.539 C125.307,296.711 126.69,301.151 126.69,306.859 C126.69,312.578 125.307,317.034 122.541,320.227 C119.776,323.419 115.898,325.016 110.909,325.016 Z M110.909,321.484 C118.752,321.484 122.674,316.609 122.674,306.859 C122.674,297.161 118.752,292.312 110.909,292.312 C103.065,292.312 99.143,297.161 99.143,306.859 C99.143,316.609 103.065,321.484 110.909,321.484 Z M136.548,324 C135.861,324 135.517,323.661 135.517,322.984 L135.517,290.813 C135.517,290.135 135.861,289.797 136.548,289.797 L137.908,289.797 C138.626,289.797 139.012,290.135 139.064,290.813 L139.329,293.734 C141.548,292.151 143.882,290.93 146.329,290.07 C148.777,289.211 151.158,288.781 153.47,288.781 C156.783,288.781 159.311,289.654 161.056,291.398 C162.801,293.143 163.673,295.714 163.673,299.109 L163.673,322.984 C163.673,323.661 163.335,324 162.658,324 L160.814,324 C160.137,324 159.798,323.661 159.798,322.984 L159.798,300.75 C159.798,297.802 159.233,295.659 158.103,294.32 C156.973,292.982 155.158,292.312 152.658,292.312 C148.126,292.312 143.71,293.76 139.408,296.656 L139.408,322.984 C139.408,323.661 139.064,324 138.376,324 L136.548,324 Z M182.782,325.016 C180.969,325.016 179.167,324.836 177.375,324.477 C175.584,324.117 173.964,323.62 172.516,322.984 C171.974,322.755 171.704,322.302 171.704,321.625 L171.704,320.469 C171.704,319.917 171.954,319.641 172.454,319.641 C172.537,319.641 172.75,319.688 173.094,319.781 C173.438,319.875 174.084,320.078 175.032,320.391 C177.573,321.161 180.25,321.547 183.063,321.547 C185.823,321.547 187.93,320.992 189.383,319.883 C190.836,318.773 191.563,317.156 191.563,315.031 C191.563,313.802 191.12,312.758 190.235,311.898 C189.349,311.039 187.865,310.224 185.782,309.453 L179.594,307.141 C174.74,305.328 172.313,302.359 172.313,298.234 C172.313,295.422 173.368,293.143 175.477,291.398 C177.586,289.654 180.339,288.781 183.735,288.781 C186.776,288.781 189.745,289.344 192.641,290.469 C193.183,290.698 193.454,291.156 193.454,291.844 L193.454,292.859 C193.454,293.443 193.209,293.734 192.719,293.734 C192.396,293.734 191.829,293.625 191.016,293.406 C188.162,292.635 185.667,292.25 183.532,292.25 C181.084,292.25 179.224,292.737 177.954,293.711 C176.683,294.685 176.047,296.125 176.047,298.031 C176.047,299.573 176.49,300.763 177.375,301.602 C178.261,302.44 179.995,303.354 182.579,304.344 L188.016,306.391 C190.558,307.339 192.407,308.505 193.563,309.891 C194.719,311.276 195.297,312.99 195.297,315.031 C195.297,318.104 194.175,320.536 191.93,322.328 C189.685,324.12 186.636,325.016 182.782,325.016 Z M212.628,325.016 C209.368,325.016 206.865,324.133 205.121,322.367 C203.376,320.602 202.503,318.016 202.503,314.609 L202.503,290.813 C202.503,290.135 202.842,289.797 203.519,289.797 L205.363,289.797 C206.04,289.797 206.378,290.135 206.378,290.813 L206.378,312.984 C206.378,315.974 206.946,318.138 208.082,319.477 C209.217,320.815 211.009,321.484 213.457,321.484 C215.675,321.484 217.759,321.143 219.707,320.461 C221.654,319.779 223.738,318.667 225.957,317.125 L225.957,290.813 C225.957,290.135 226.3,289.797 226.988,289.797 L228.816,289.797 C229.503,289.797 229.847,290.135 229.847,290.813 L229.847,322.984 C229.847,323.661 229.503,324 228.816,324 L227.457,324 C226.779,324 226.394,323.661 226.3,322.984 L226.035,320.266 C221.722,323.432 217.253,325.016 212.628,325.016 Z M246.222,324.203 C244.41,324.203 242.993,323.672 241.972,322.609 C240.952,321.547 240.441,320.062 240.441,318.156 L240.441,274.703 C240.441,274.026 240.785,273.687 241.472,273.687 L243.3,273.687 C243.988,273.687 244.332,274.026 244.332,274.703 L244.332,318.078 C244.332,319.078 244.524,319.781 244.91,320.187 C245.295,320.594 245.983,320.797 246.972,320.797 C247.243,320.797 247.55,320.776 247.894,320.734 C248.238,320.693 248.519,320.672 248.738,320.672 C249.373,320.672 249.691,320.99 249.691,321.625 L249.691,322.906 C249.691,323.458 249.399,323.802 248.816,323.937 C248.087,324.115 247.222,324.203 246.222,324.203 Z M267.988,324.406 C265.311,324.406 263.269,323.693 261.863,322.266 C260.457,320.839 259.754,318.766 259.754,316.047 L259.754,293.203 L254.394,293.203 C253.707,293.203 253.363,292.859 253.363,292.172 L253.363,291.5 C253.363,291.135 253.431,290.862 253.566,290.68 C253.702,290.497 253.978,290.385 254.394,290.344 L259.894,289.859 L260.379,280.891 C260.42,280.526 260.519,280.266 260.675,280.109 C260.832,279.953 261.071,279.875 261.394,279.875 L262.613,279.875 C263.29,279.875 263.629,280.214 263.629,280.891 L263.629,289.797 L273.504,289.797 C274.181,289.797 274.519,290.135 274.519,290.813 L274.519,292.172 C274.519,292.859 274.181,293.203 273.504,293.203 L263.629,293.203 L263.629,315.844 C263.629,317.698 264.027,319.01 264.824,319.781 C265.621,320.552 266.946,320.937 268.8,320.937 C270.113,320.937 271.269,320.823 272.269,320.594 C272.769,320.51 273.168,320.435 273.465,320.367 C273.761,320.299 273.978,320.266 274.113,320.266 C274.613,320.266 274.863,320.536 274.863,321.078 L274.863,322.094 C274.863,322.865 274.613,323.344 274.113,323.531 C272.342,324.115 270.3,324.406 267.988,324.406 Z M283.354,324 C282.677,324 282.338,323.661 282.338,322.984 L282.338,290.813 C282.338,290.135 282.677,289.797 283.354,289.797 L285.198,289.797 C285.875,289.797 286.213,290.135 286.213,290.813 L286.213,322.984 C286.213,323.661 285.875,324 285.198,324 L283.354,324 Z M284.307,282.453 C283.401,282.453 282.687,282.18 282.167,281.633 C281.646,281.086 281.385,280.359 281.385,279.453 C281.385,278.547 281.646,277.823 282.167,277.281 C282.687,276.74 283.401,276.469 284.307,276.469 C285.213,276.469 285.927,276.74 286.448,277.281 C286.969,277.823 287.229,278.547 287.229,279.453 C287.229,280.359 286.969,281.086 286.448,281.633 C285.927,282.18 285.213,282.453 284.307,282.453 Z M298.116,324 C297.429,324 297.085,323.661 297.085,322.984 L297.085,290.813 C297.085,290.135 297.429,289.797 298.116,289.797 L299.476,289.797 C300.195,289.797 300.58,290.135 300.632,290.813 L300.898,293.734 C303.116,292.151 305.45,290.93 307.898,290.07 C310.346,289.211 312.726,288.781 315.038,288.781 C318.351,288.781 320.879,289.654 322.624,291.398 C324.369,293.143 325.241,295.714 325.241,299.109 L325.241,322.984 C325.241,323.661 324.903,324 324.226,324 L322.382,324 C321.705,324 321.366,323.661 321.366,322.984 L321.366,300.75 C321.366,297.802 320.801,295.659 319.671,294.32 C318.541,292.982 316.726,292.312 314.226,292.312 C309.695,292.312 305.278,293.76 300.976,296.656 L300.976,322.984 C300.976,323.661 300.632,324 299.945,324 L298.116,324 Z M347.756,338.828 C345.85,338.828 343.99,338.635 342.178,338.25 C340.365,337.865 338.777,337.328 337.412,336.641 C336.912,336.422 336.662,335.948 336.662,335.219 L336.662,334.266 C336.662,333.682 336.912,333.391 337.412,333.391 C337.548,333.391 337.696,333.411 337.858,333.453 C338.019,333.495 338.303,333.583 338.709,333.719 C341.928,334.76 344.876,335.281 347.553,335.281 C351.761,335.281 354.852,334.24 356.826,332.156 C358.8,330.073 359.787,326.786 359.787,322.297 L359.787,318.969 C358.11,320.375 356.251,321.487 354.209,322.305 C352.168,323.122 350.22,323.531 348.365,323.531 C344.011,323.531 340.519,321.977 337.889,318.867 C335.259,315.758 333.944,311.646 333.944,306.531 C333.944,301.042 335.248,296.711 337.858,293.539 C340.467,290.367 344.016,288.781 348.506,288.781 C352.766,288.781 356.548,290.297 359.85,293.328 L360.131,290.813 C360.225,290.135 360.61,289.797 361.287,289.797 L362.647,289.797 C363.324,289.797 363.662,290.135 363.662,290.813 L363.662,322.437 C363.662,327.781 362.303,331.849 359.584,334.641 C356.865,337.432 352.923,338.828 347.756,338.828 Z M349.256,319.984 C352.652,319.984 356.162,318.536 359.787,315.641 L359.787,296.734 C357.933,295.193 356.144,294.07 354.42,293.367 C352.696,292.664 350.86,292.312 348.912,292.312 C345.287,292.312 342.556,293.492 340.717,295.852 C338.878,298.211 337.959,301.698 337.959,306.312 C337.959,310.76 338.923,314.151 340.85,316.484 C342.777,318.818 345.579,319.984 349.256,319.984 Z" id="Fill-37" fill="#535B64"></path>
            <path d="M58,394 C57.323,394 56.984,393.661 56.984,392.984 L56.984,347.891 C56.984,347.214 57.323,346.875 58,346.875 L73.234,346.875 C77.547,346.875 80.982,348.143 83.539,350.68 C86.096,353.216 87.375,356.62 87.375,360.891 C87.375,365.099 86.096,368.474 83.539,371.016 C80.982,373.557 77.547,374.828 73.234,374.828 L60.859,374.828 L60.859,392.984 C60.859,393.661 60.521,394 59.844,394 L58,394 Z M73.094,371.219 C79.802,371.219 83.156,367.776 83.156,360.891 C83.156,353.953 79.802,350.484 73.094,350.484 L60.859,350.484 L60.859,371.219 L73.094,371.219 Z M103.972,394.75 C100.847,394.75 98.365,393.854 96.527,392.063 C94.688,390.271 93.769,387.88 93.769,384.891 C93.769,381.578 94.902,378.971 97.167,377.07 C99.433,375.169 102.519,374.219 106.425,374.219 C109.457,374.219 112.696,374.74 116.144,375.781 L116.144,370.062 C116.144,367.302 115.488,365.32 114.175,364.117 C112.863,362.914 110.686,362.312 107.644,362.312 C104.561,362.312 101.253,362.88 97.722,364.016 C97.306,364.151 96.962,364.219 96.691,364.219 C96.243,364.219 96.019,363.922 96.019,363.328 L96.019,362.25 C96.019,361.885 96.087,361.602 96.222,361.398 C96.358,361.195 96.582,361.026 96.894,360.891 C100.477,359.484 104.264,358.781 108.253,358.781 C112.243,358.781 115.201,359.62 117.128,361.297 C119.055,362.974 120.019,365.51 120.019,368.906 L120.019,392.984 C120.019,393.661 119.68,394 119.003,394 L117.566,394 C116.889,394 116.529,393.661 116.488,392.984 L116.207,390.063 C112.311,393.187 108.233,394.75 103.972,394.75 Z M104.519,391.219 C106.238,391.219 108.095,390.867 110.089,390.164 C112.084,389.461 114.102,388.474 116.144,387.203 L116.144,378.703 C113.102,377.88 110.154,377.469 107.3,377.469 C100.957,377.469 97.785,379.917 97.785,384.813 C97.785,386.906 98.352,388.497 99.488,389.586 C100.623,390.674 102.3,391.219 104.519,391.219 Z M131.516,394 C130.829,394 130.485,393.661 130.485,392.984 L130.485,360.812 C130.485,360.135 130.829,359.797 131.516,359.797 L132.797,359.797 C133.527,359.797 133.912,360.135 133.954,360.812 L134.297,364.766 C136.027,362.859 137.717,361.51 139.368,360.719 C141.019,359.927 142.886,359.531 144.969,359.531 C145.699,359.531 146.292,359.552 146.751,359.594 C147.428,359.635 147.766,360 147.766,360.687 L147.766,362.375 C147.766,362.562 147.699,362.734 147.563,362.891 C147.428,363.047 147.245,363.125 147.016,363.125 C146.652,363.125 146.31,363.115 145.993,363.094 C145.675,363.073 145.199,363.062 144.563,363.062 C142.48,363.062 140.633,363.448 139.024,364.219 C137.415,364.99 135.865,366.234 134.376,367.953 L134.376,392.984 C134.376,393.661 134.032,394 133.344,394 L131.516,394 Z M164.424,394.406 C161.747,394.406 159.705,393.693 158.299,392.266 C156.893,390.839 156.189,388.766 156.189,386.047 L156.189,363.203 L150.83,363.203 C150.143,363.203 149.799,362.859 149.799,362.172 L149.799,361.5 C149.799,361.135 149.867,360.862 150.002,360.68 C150.137,360.497 150.413,360.385 150.83,360.344 L156.33,359.859 L156.814,350.891 C156.856,350.526 156.955,350.266 157.111,350.109 C157.268,349.953 157.507,349.875 157.83,349.875 L159.049,349.875 C159.726,349.875 160.064,350.214 160.064,350.891 L160.064,359.797 L169.939,359.797 C170.617,359.797 170.955,360.135 170.955,360.812 L170.955,362.172 C170.955,362.859 170.617,363.203 169.939,363.203 L160.064,363.203 L160.064,385.844 C160.064,387.698 160.463,389.01 161.26,389.781 C162.057,390.552 163.382,390.937 165.236,390.937 C166.549,390.937 167.705,390.823 168.705,390.594 C169.205,390.51 169.604,390.435 169.9,390.367 C170.197,390.299 170.413,390.266 170.549,390.266 C171.049,390.266 171.299,390.536 171.299,391.078 L171.299,392.094 C171.299,392.865 171.049,393.344 170.549,393.531 C168.778,394.115 166.736,394.406 164.424,394.406 Z M179.524,394 C178.837,394 178.493,393.661 178.493,392.984 L178.493,360.812 C178.493,360.135 178.837,359.797 179.524,359.797 L180.884,359.797 C181.602,359.797 181.988,360.135 182.04,360.812 L182.306,363.734 C184.524,362.151 186.858,360.93 189.306,360.07 C191.753,359.211 194.134,358.781 196.446,358.781 C199.759,358.781 202.287,359.654 204.032,361.398 C205.777,363.143 206.649,365.714 206.649,369.109 L206.649,392.984 C206.649,393.661 206.311,394 205.634,394 L203.79,394 C203.113,394 202.774,393.661 202.774,392.984 L202.774,370.75 C202.774,367.802 202.209,365.659 201.079,364.32 C199.949,362.982 198.134,362.312 195.634,362.312 C191.102,362.312 186.686,363.76 182.384,366.656 L182.384,392.984 C182.384,393.661 182.04,394 181.352,394 L179.524,394 Z M231.601,395.016 C226.216,395.016 222.161,393.487 219.437,390.43 C216.713,387.372 215.351,382.828 215.351,376.797 C215.351,371.089 216.724,366.659 219.469,363.508 C222.213,360.357 226.055,358.781 230.992,358.781 C235.117,358.781 238.279,359.958 240.476,362.312 C242.674,364.667 243.773,368.042 243.773,372.437 C243.773,374.25 243.685,375.615 243.508,376.531 C243.372,377.208 242.987,377.547 242.351,377.547 L219.305,377.547 C219.346,382.307 220.388,385.82 222.43,388.086 C224.471,390.352 227.622,391.484 231.883,391.484 C235.143,391.484 238.247,390.917 241.195,389.781 C241.789,389.552 242.195,389.438 242.414,389.438 C242.601,389.438 242.763,389.518 242.898,389.68 C243.034,389.841 243.101,390.036 243.101,390.266 L243.101,391.281 C243.101,392.01 242.851,392.484 242.351,392.703 C239.091,394.245 235.508,395.016 231.601,395.016 Z M239.976,374.422 C240.018,373.786 240.039,373.036 240.039,372.172 C240.039,368.911 239.245,366.443 237.656,364.766 C236.068,363.089 233.737,362.25 230.664,362.25 C223.497,362.25 219.711,366.307 219.305,374.422 L239.976,374.422 Z M253.372,394 C252.685,394 252.341,393.661 252.341,392.984 L252.341,360.812 C252.341,360.135 252.685,359.797 253.372,359.797 L254.654,359.797 C255.383,359.797 255.768,360.135 255.81,360.812 L256.154,364.766 C257.883,362.859 259.573,361.51 261.224,360.719 C262.875,359.927 264.742,359.531 266.825,359.531 C267.555,359.531 268.148,359.552 268.607,359.594 C269.284,359.635 269.622,360 269.622,360.687 L269.622,362.375 C269.622,362.562 269.555,362.734 269.419,362.891 C269.284,363.047 269.102,363.125 268.872,363.125 C268.508,363.125 268.167,363.115 267.849,363.094 C267.531,363.073 267.055,363.062 266.419,363.062 C264.336,363.062 262.49,363.448 260.88,364.219 C259.271,364.99 257.721,366.234 256.232,367.953 L256.232,392.984 C256.232,393.661 255.888,394 255.2,394 L253.372,394 Z" id="Fill-38" fill="#535B64"></path>
        </g>
    </g>
</svg>