<?xml version="1.0" encoding="utf-8"?>
<!-- Generator: Adobe Illustrator 15.0.0, SVG Export Plug-In . SVG Version: 6.00 Build 0)  -->
<!DOCTYPE svg PUBLIC "-//W3C//DTD SVG 1.1//EN" "http://www.w3.org/Graphics/SVG/1.1/DTD/svg11.dtd">
<svg version="1.1" xmlns="http://www.w3.org/2000/svg" xmlns:xlink="http://www.w3.org/1999/xlink" x="0px" y="0px"
	 width="566.93px" height="276px" viewBox="0 0 566.93 276" enable-background="new 0 0 566.93 276" xml:space="preserve">
<g id="Livello_2">
</g>
<g id="Livello_1">
	<path fill="none" d="M103.788,243.4l-6.808-41.237l-28.114,2.565l-6.314,38.67H46.768V207.1h-8.682L37.79,243.4H23.285L5.604,77.28
		l20.347,64.802L133.088,90.29l18.646-41.2L137.23,3.57l28.71,32.262V12.944l20.719,20.224l106.35,1.085v123.12L181.727,170.79
		l-32.754,72.61h-19.336l0.492-45.381l-12.33,4.342v41.041h-16.97"/>
	<g>
		<path stroke="#000000" d="M310.215,33.083h41.229c19.862,0,34.217,11.017,34.217,30.045c0,11.517-5.675,20.698-14.688,25.37v0.335
			c12.352,3.672,19.362,15.356,19.362,28.542c0,22.2-17.192,33.55-37.891,33.55h-42.229L310.215,33.083L310.215,33.083z
			 M351.443,82.658c10.684,0,17.36-7.51,17.36-17.86c0-10.35-6.344-17.36-17.694-17.36h-24.37v35.22H351.443L351.443,82.658z
			 M353.279,136.571c12.686,0,20.196-8.01,20.196-20.03s-8.012-20.196-20.364-20.196H326.74v40.228h26.54L353.279,136.571z
			 M421.885,33.083h16.523v117.843h-16.524L421.885,33.083L421.885,33.083z M501.504,47.438H461.11V33.083h97.312v14.355h-40.395
			v103.488h-16.523V47.438L501.504,47.438z M312.162,172.386h25.572c11.828,0,20.245,7.14,20.245,18.86
			c0,7.777-3.73,13.425-9.483,16.302v0.213c7.673,2.134,12.573,9.484,12.573,18.54c0,13.32-9.91,20.992-22.481,20.992h-26.426
			V172.386L312.162,172.386z M337.735,204.884c7.565,0,12.68-5.327,12.68-13.104c0-7.674-4.794-12.787-12.785-12.787h-18.114v25.892
			H337.735L337.735,204.884z M338.695,240.686c9.058,0,14.703-5.646,14.703-14.598s-6.073-14.811-14.81-14.811h-19.073v29.408
			H338.695L338.695,240.686z M377.9,172.386h7.46v48.694c0,12.893,8.311,20.67,21.204,20.67c12.893,0,21.31-7.777,21.31-20.883
			v-48.48h7.354v48.801c0,16.621-11.614,27.384-28.556,27.384c-17.049,0-28.771-10.761-28.771-27.384v-48.799L377.9,172.386z
			 M456,172.386h7.353v68.3h34.735v6.606H456V172.386z M511.19,172.386h7.354v68.3h34.734v6.606H511.19V172.386z"/>
		<path fill="none" stroke="#000000" stroke-width="4" stroke-linejoin="round" d="M103.79,242.872l-6.809-41.238L68.866,204.2
			l-6.314,38.672H46.767v-36.306h-8.682l-0.296,36.306H23.285L5.604,76.752l20.348,64.803L133.09,89.76l18.645-41.197l-14.503-45.52
			l28.708,32.26V12.415L186.66,32.64l106.35,1.085v123.12l-111.282,13.417l-32.753,72.61h-19.337l0.493-45.382l-12.332,4.342v41.04
			h-16.97"/>
		<path fill="none" stroke="#000000" d="M103.788,242.216L96.98,200.98l-28.114,2.564l-6.314,38.67H46.768v-36.303h-8.682
			l-0.296,36.304H23.285L5.604,76.098l20.347,64.8l107.138-51.792l18.646-41.198l-14.503-45.52l28.71,32.26V11.76l20.719,20.224
			l106.35,1.086v123.12l-111.283,13.418l-32.753,72.609h-19.336l0.492-45.38l-12.33,4.34v41.04h-16.97"/>
		<path fill="#FFFFFF" stroke="#000000" stroke-width="3" stroke-linejoin="round" d="M103.79,242.872l-6.809-41.238L68.866,204.2
			l-6.314,38.672H46.767v-36.306h-8.682l-0.296,36.306H23.285L5.604,76.752l20.348,64.8L133.09,89.76l18.645-41.198l-14.503-45.52
			l28.708,32.26V12.415L186.66,32.64l106.35,1.084v123.12l-111.282,13.417l-32.753,72.612h-19.337l0.493-45.382l-12.332,4.342v41.04
			h-16.97"/>
		<path fill="#0B0A0A" stroke="#000000" d="M218.033,32.96l-31.375-0.32l-20.718-20.226v21.31l-28.708-30.68l14.503,45.52
			L133.09,89.76l-9.3,4.494C283.577,157.982,218.033,32.959,218.033,32.96L218.033,32.96z M159.23,83.446V57.402l30.388,13.022
			l-30.387,13.023L159.23,83.446z"/>
		<path fill="none" stroke="#000000" d="M159.23,83.447l30.388-13.022l-30.387-13.023L159.23,83.447z"/>
		<path fill="none" stroke="#000000" stroke-width="4" stroke-linecap="round" d="M290.64,116.595l-25.257,24.86"/>
		<path fill="#010101" stroke="#000000" d="M18.748,179.1c0,0,58.798,11.49,69.453-66.745l-60.771,27.043L5.604,76.752L18.748,179.1
			z"/>
		<path stroke="#000000" d="M265.383,33.442l27.626-0.372v24.332L265.383,33.442z"/>
		<path fill="none" stroke="#000000" stroke-width="4" stroke-linecap="round" d="M21.905,244.846h266.523"/>
	</g>
</g>
</svg>
