<?xml version="1.0" encoding="UTF-8"?>
<svg width="563px" height="613px" viewBox="0 0 563 613" version="1.1" xmlns="http://www.w3.org/2000/svg" xmlns:xlink="http://www.w3.org/1999/xlink">
    <!-- Generator: Sketch 49.3 (51167) - http://www.bohemiancoding.com/sketch -->
    <title>38277864</title>
    <desc>Created with Sketch.</desc>
    <defs>
        <path d="M300.804,136.421 L300.804,103.459 L311.658,92.605 C312.626,93.341 313.829,93.783 315.138,93.783 C318.319,93.783 320.899,91.203 320.899,88.021 C320.899,84.839 318.319,82.259 315.138,82.259 C311.956,82.259 309.376,84.839 309.376,88.021 C309.376,89.171 309.717,90.239 310.297,91.138 L300.804,100.631 L300.804,38.623 C300.804,38.591 300.788,38.565 300.786,38.533 C303.499,38.066 305.565,35.708 305.565,32.861 C305.565,29.679 302.985,27.1 299.804,27.1 C296.622,27.1 294.042,29.679 294.042,32.861 C294.042,35.708 296.108,38.066 298.821,38.533 C298.819,38.565 298.804,38.591 298.804,38.623 L298.804,136.007 L283.825,150.985 L273.883,141.044 L282.706,132.221 C282.894,132.033 282.999,131.779 282.999,131.514 L282.999,121.802 C285.703,121.328 287.761,118.973 287.761,116.133 C287.761,112.951 285.181,110.371 281.999,110.371 C278.817,110.371 276.237,112.951 276.237,116.133 C276.237,118.973 278.295,121.328 280.999,121.802 L280.999,131.1 L272.469,139.63 L267.468,134.628 L267.375,98.852 C267.374,98.587 267.269,98.334 267.082,98.147 L256.956,88.021 L273.536,71.441 C273.724,71.254 273.829,71 273.829,70.734 L273.829,20.192 C278.417,19.354 281.897,15.344 281.897,10.514 C281.897,5.075 277.488,0.666 272.05,0.666 C266.611,0.666 262.202,5.075 262.202,10.514 C262.202,15.878 266.493,20.231 271.829,20.35 L271.829,70.32 L255.542,86.607 L247.715,78.779 L247.715,47.206 C250.419,46.732 252.477,44.377 252.477,41.537 C252.477,38.355 249.896,35.775 246.715,35.775 C243.533,35.775 240.953,38.355 240.953,41.537 C240.953,44.377 243.011,46.732 245.715,47.206 L245.715,79.193 C245.715,79.458 245.82,79.713 246.008,79.9 L254.834,88.727 C254.835,88.728 254.835,88.728 254.835,88.728 C254.835,88.729 254.836,88.729 254.836,88.729 L265.376,99.269 L265.469,135.046 C265.47,135.311 265.575,135.564 265.762,135.751 L271.762,141.75 L271.762,141.751 C271.762,141.751 271.762,141.751 271.763,141.751 L282.411,152.399 L259.055,175.756 L245.644,162.345 L252.239,155.749 C253.175,156.405 254.313,156.794 255.542,156.794 C258.724,156.794 261.304,154.214 261.304,151.032 C261.304,147.85 258.724,145.271 255.542,145.271 C252.36,145.271 249.78,147.85 249.78,151.032 C249.78,152.262 250.169,153.399 250.825,154.335 L244.229,160.931 L235.567,152.27 L235.567,114.344 C238.271,113.869 240.329,111.515 240.329,108.674 C240.329,105.492 237.749,102.913 234.567,102.913 C231.386,102.913 228.806,105.492 228.806,108.674 C228.806,111.515 230.863,113.869 233.567,114.344 L233.567,150.27 L198.951,115.653 C198.972,115.636 198.997,115.629 199.016,115.61 L217.049,97.577 C217.236,97.389 217.342,97.135 217.342,96.87 L217.342,37.349 C219.611,36.576 221.247,34.431 221.247,31.899 C221.247,28.717 218.667,26.137 215.485,26.137 C212.304,26.137 209.724,28.717 209.724,31.899 C209.724,35.033 212.228,37.576 215.342,37.653 L215.342,96.456 L197.602,114.196 C197.583,114.215 197.576,114.241 197.559,114.261 L193.547,110.249 L193.547,63.792 C196.251,63.317 198.309,60.962 198.309,58.122 C198.309,54.94 195.729,52.36 192.547,52.36 C189.365,52.36 186.785,54.94 186.785,58.122 C186.785,60.962 188.843,63.317 191.547,63.792 L191.547,80.064 L172.221,60.738 L172.221,35.683 C174.925,35.208 176.982,32.854 176.982,30.014 C176.982,26.832 174.402,24.252 171.221,24.252 C168.039,24.252 165.459,26.832 165.459,30.014 C165.459,32.854 167.517,35.208 170.221,35.683 L170.221,61.152 C170.221,61.417 170.326,61.672 170.514,61.859 L191.547,82.893 L191.547,110.663 C191.547,110.928 191.652,111.183 191.84,111.37 L213.836,133.366 L185.546,133.366 L169.429,117.249 L169.429,87.029 C169.429,86.764 169.323,86.509 169.136,86.322 L154.475,71.661 L154.475,52.36 C154.475,52.095 154.369,51.841 154.182,51.653 L144.729,42.2 C145.509,41.217 145.979,39.976 145.979,38.623 C145.979,35.441 143.398,32.861 140.217,32.861 C137.035,32.861 134.455,35.441 134.455,38.623 C134.455,41.805 137.035,44.385 140.217,44.385 C141.322,44.385 142.351,44.068 143.229,43.528 L152.475,52.774 L152.475,69.661 L148.42,65.606 C148.232,65.419 147.979,65.313 147.713,65.313 L131.73,65.313 C131.73,59.874 127.321,55.466 121.883,55.466 C116.444,55.466 112.035,59.874 112.035,65.313 C112.035,70.753 116.444,75.161 121.883,75.161 C126.636,75.161 130.603,71.793 131.526,67.313 L147.299,67.313 L152.767,72.781 C152.768,72.782 152.768,72.782 152.769,72.783 L167.429,87.443 L167.429,115.249 L154.859,102.679 C155.516,101.744 155.904,100.606 155.904,99.376 C155.904,96.194 153.324,93.615 150.143,93.615 C146.961,93.615 144.381,96.194 144.381,99.376 C144.381,102.559 146.961,105.138 150.143,105.138 C151.372,105.138 152.51,104.75 153.445,104.093 L167.721,118.369 C167.722,118.37 167.722,118.37 167.723,118.371 L184.425,135.073 C184.612,135.261 184.866,135.366 185.132,135.366 L215.836,135.366 L279.999,199.529 L279.999,595.85 L271.543,604.307 C271.355,604.494 271.25,604.748 271.25,605.014 L271.25,612.98 C269.526,613.427 268.25,614.978 268.25,616.836 L268.25,650.586 L276.25,650.586 L276.25,616.836 C276.25,615.066 275.094,613.582 273.5,613.055 L273.25,613.037 L273.25,605.428 L281.706,596.971 C281.894,596.783 281.999,596.529 281.999,596.264 L281.999,199.115 C281.999,198.85 281.894,198.595 281.706,198.408 L260.469,177.17 L284.53,153.108 C284.531,153.107 284.532,153.107 284.532,153.107 L284.533,153.105 L300.511,137.128 C300.698,136.94 300.804,136.686 300.804,136.421" id="path-1"></path>
    </defs>
    <g id="Page-1" stroke="none" stroke-width="1" fill="none" fill-rule="evenodd">
        <g id="38277864">
            <path d="M305,613.055 L304.75,613.037 L304.75,605.014 C304.75,604.748 304.645,604.494 304.457,604.307 L296.001,595.85 L296.001,220.528 L308.558,207.971 C308.937,207.888 309.222,207.602 309.306,207.224 L349.25,167.279 C349.438,167.092 349.543,166.837 349.543,166.572 L349.543,109.088 L371.37,87.261 C371.559,87.072 371.664,86.817 371.663,86.55 L371.436,19.204 C374.13,18.722 376.178,16.371 376.178,13.537 C376.178,10.355 373.598,7.775 370.416,7.775 C367.234,7.775 364.654,10.355 364.654,13.537 C364.654,16.384 366.722,18.743 369.436,19.21 L369.662,86.141 L349.543,106.26 L349.543,44.292 C352.247,43.818 354.305,41.463 354.305,38.623 C354.305,35.441 351.725,32.861 348.543,32.861 C345.361,32.861 342.781,35.441 342.781,38.623 C342.781,41.463 344.839,43.818 347.543,44.292 L347.543,90.206 L324.829,67.493 L324.829,13.499 C327.708,13.179 329.948,10.74 329.948,7.775 C329.948,4.593 327.368,2.014 324.187,2.014 C321.005,2.014 318.425,4.593 318.425,7.775 C318.425,10.489 320.304,12.758 322.829,13.37 L322.829,67.907 C322.829,68.172 322.935,68.427 323.122,68.614 L347.543,93.034 L347.543,140.813 C347.488,140.804 347.438,140.781 347.382,140.781 L332.198,140.781 L320.351,128.933 L320.351,121.802 C323.055,121.328 325.112,118.973 325.112,116.133 C325.112,112.951 322.532,110.371 319.351,110.371 C316.169,110.371 313.589,112.951 313.589,116.133 C313.589,118.973 315.646,121.328 318.351,121.802 L318.351,129.347 C318.351,129.612 318.456,129.867 318.644,130.054 L331.077,142.488 C331.265,142.675 331.519,142.781 331.784,142.781 L347.382,142.781 C347.438,142.781 347.488,142.757 347.543,142.748 L347.543,166.158 L309.348,204.353 L309.348,191.871 C309.348,191.606 309.242,191.352 309.055,191.164 L303.913,186.023 L314.296,175.641 C314.483,175.453 314.589,175.199 314.589,174.934 L314.589,161.167 C317.293,160.692 319.351,158.337 319.351,155.497 C319.351,152.315 316.771,149.735 313.589,149.735 C310.407,149.735 307.827,152.315 307.827,155.497 C307.827,158.337 309.885,160.692 312.589,161.167 L312.589,174.52 L302.499,184.609 L296.002,178.112 C296.606,177.201 296.96,176.109 296.96,174.934 C296.96,171.751 294.38,169.172 291.198,169.172 C288.017,169.172 285.437,171.751 285.437,174.934 C285.437,178.116 288.017,180.695 291.198,180.695 C292.482,180.695 293.664,180.27 294.622,179.56 L307.348,192.285 L307.348,206.353 L294.294,219.407 C294.106,219.594 294.001,219.849 294.001,220.114 L294.001,596.264 C294.001,596.529 294.106,596.783 294.294,596.971 L302.75,605.428 L302.75,612.98 C301.026,613.427 299.75,614.978 299.75,616.836 L299.75,650.586 L307.75,650.586 L307.75,616.836 C307.75,615.066 306.586,613.582 305,613.055" id="Fill-1" fill="#E6E6E6"></path>
            <path d="M367.666,613.055 L367.416,613.037 L367.416,605.014 C367.416,604.748 367.311,604.494 367.123,604.307 L324.003,561.186 L324.003,364.304 L360.378,327.929 C360.495,327.975 360.619,328 360.743,328 C360.999,328 361.255,327.902 361.45,327.707 C361.74,327.417 361.813,326.993 361.672,326.635 L388.865,299.441 C389.048,299.686 389.325,299.854 389.653,299.854 L411.405,299.854 C411.879,302.559 414.234,304.616 417.074,304.616 C420.256,304.616 422.836,302.036 422.836,298.854 C422.836,295.672 420.256,293.092 417.074,293.092 C414.234,293.092 411.879,295.149 411.405,297.854 L390.452,297.854 L445.039,243.268 C445.227,243.08 445.332,242.826 445.332,242.561 L445.332,210.655 L496.423,159.564 C496.61,159.377 496.716,159.123 496.716,158.857 L496.716,96.386 C499.42,95.912 501.478,93.557 501.478,90.717 C501.478,87.535 498.897,84.955 495.716,84.955 C492.534,84.955 489.954,87.535 489.954,90.717 C489.954,93.557 492.012,95.912 494.716,96.386 L494.716,121.058 L471.813,98.155 L471.813,63.884 C471.813,63.789 471.784,63.704 471.76,63.617 C474.093,62.88 475.786,60.699 475.786,58.122 C475.786,54.94 473.206,52.36 470.024,52.36 C466.843,52.36 464.263,54.94 464.263,58.122 C464.263,61.234 466.731,63.763 469.815,63.873 C469.815,63.877 469.813,63.88 469.813,63.884 L469.813,98.569 C469.813,98.834 469.919,99.089 470.106,99.276 L493.432,122.602 C493.627,122.797 493.883,122.895 494.139,122.895 C494.345,122.895 494.542,122.814 494.716,122.688 L494.716,158.443 L445.332,207.827 L445.332,183.933 C448.036,183.458 450.094,181.104 450.094,178.264 C450.094,175.082 447.514,172.502 444.332,172.502 C441.15,172.502 438.57,175.082 438.57,178.264 C438.57,181.104 440.628,183.458 443.332,183.933 L443.332,242.146 L415.95,269.528 L415.95,237.687 C415.95,237.421 415.845,237.167 415.657,236.979 L409.663,230.985 L422.634,218.016 C423.569,218.672 424.707,219.061 425.937,219.061 C429.118,219.061 431.698,216.481 431.698,213.299 C431.698,210.117 429.118,207.537 425.937,207.537 C422.755,207.537 420.175,210.117 420.175,213.299 C420.175,214.528 420.563,215.666 421.22,216.602 L408.249,229.571 L398.856,220.178 L398.856,194.181 L398.979,194.304 L450.593,142.69 C452.155,143.732 454.031,144.342 456.05,144.342 C461.488,144.342 465.897,139.933 465.897,134.494 C465.897,129.055 461.488,124.646 456.05,124.646 C450.611,124.646 446.202,129.055 446.202,134.494 C446.202,137.191 447.288,139.632 449.044,141.411 L398.856,191.599 L398.856,162.469 C398.913,162.432 398.975,162.406 399.024,162.357 L415.784,145.597 C416.719,146.251 417.854,146.638 419.082,146.638 C422.264,146.638 424.844,144.059 424.844,140.876 C424.844,137.694 422.264,135.115 419.082,135.115 C415.9,135.115 413.32,137.694 413.32,140.876 C413.32,142.108 413.71,143.248 414.369,144.184 L398.856,159.697 L398.856,127.814 L442.761,83.91 C443.696,84.566 444.834,84.955 446.063,84.955 C449.245,84.955 451.825,82.375 451.825,79.193 C451.825,76.011 449.245,73.432 446.063,73.432 C442.882,73.432 440.302,76.011 440.302,79.193 C440.302,80.423 440.69,81.561 441.347,82.496 L426.184,97.659 L419.947,91.423 L419.947,40.17 C422.718,39.752 424.844,37.368 424.844,34.481 C424.844,31.298 422.264,28.719 419.082,28.719 C415.9,28.719 413.32,31.298 413.32,34.481 C413.32,37.274 415.31,39.602 417.947,40.129 L417.947,70.65 L401.294,53.997 C401.053,53.756 400.723,53.682 400.411,53.738 C400.931,52.872 401.235,51.862 401.235,50.779 C401.235,47.597 398.655,45.018 395.474,45.018 C392.292,45.018 389.712,47.597 389.712,50.779 C389.712,53.961 392.292,56.541 395.474,56.541 C397.095,56.541 398.557,55.869 399.604,54.792 C399.624,55.017 399.707,55.238 399.88,55.411 L417.947,73.479 L417.947,91.837 C417.947,92.103 418.053,92.357 418.24,92.544 L424.77,99.073 L408.433,115.41 L398.507,105.483 C400.292,103.7 401.397,101.236 401.397,98.514 C401.397,93.075 396.988,88.666 391.55,88.666 C386.111,88.666 381.702,93.075 381.702,98.514 C381.702,103.953 386.111,108.361 391.55,108.361 C393.542,108.361 395.394,107.765 396.943,106.748 L407.019,116.824 L397.149,126.693 C396.962,126.881 396.856,127.135 396.856,127.4 L396.856,187.377 L388.77,179.291 C389.188,178.492 389.429,177.584 389.429,176.62 C389.429,173.438 386.849,170.858 383.667,170.858 C380.485,170.858 377.905,173.438 377.905,176.62 C377.905,179.802 380.485,182.382 383.667,182.382 C385.157,182.382 386.511,181.811 387.534,180.882 L395.941,189.29 C396.137,189.485 396.393,189.583 396.648,189.583 C396.72,189.583 396.787,189.558 396.856,189.542 L396.856,220.592 C396.856,220.857 396.962,221.112 397.149,221.299 L413.95,238.101 L413.95,271.495 C413.95,271.505 413.955,271.513 413.956,271.523 L373.464,312.015 L373.464,276.411 L386.984,262.891 C387.172,262.703 387.277,262.449 387.277,262.184 L387.277,249.273 C392.123,248.657 395.873,244.527 395.873,239.514 C395.873,234.075 391.464,229.666 386.025,229.666 C380.587,229.666 376.178,234.075 376.178,239.514 C376.178,244.7 380.189,248.94 385.277,249.324 L385.277,261.77 L371.757,275.29 C371.569,275.477 371.464,275.731 371.464,275.997 L371.464,313.513 C371.464,313.66 371.499,313.797 371.556,313.922 L360.317,325.161 L349.228,314.07 L349.228,298.762 C351.932,298.287 353.989,295.933 353.989,293.092 C353.989,289.91 351.409,287.331 348.228,287.331 C345.046,287.331 342.466,289.91 342.466,293.092 C342.466,295.933 344.523,298.287 347.228,298.762 L347.228,314.484 C347.228,314.75 347.333,315.004 347.521,315.191 L358.903,326.574 L322.296,363.183 C322.108,363.37 322.003,363.624 322.003,363.89 L322.003,561.6 C322.003,561.865 322.108,562.119 322.296,562.307 L365.416,605.428 L365.416,612.98 C363.692,613.427 362.416,614.978 362.416,616.836 L362.416,650.586 L370.416,650.586 L370.416,616.836 C370.416,615.066 369.252,613.582 367.666,613.055" id="Fill-2" fill="#E6E6E6"></path>
            <path d="M210.834,613.055 L210.584,605.428 L253.704,562.307 C253.829333,562.181667 253.927,490.115 253.997,346.107 C253.997,345.930333 244.341667,336.137333 225.031,316.728 L240.755,301.004 C240.879667,300.879333 240.977333,295.538 241.048,284.98 C243.631,284.411 245.565,282.112 245.565,279.357 C245.565,276.175 242.985,273.596 239.804,273.596 C236.622,273.596 234.042,276.175 234.042,279.357 C234.042,282.283 236.225,284.693 239.048,285.064 L239.048,299.883 L223.617,315.313 L199.392,291.088 L199.387,281.639 C199.531667,281.418333 199.529667,277.701667 199.381,270.489 L207.093,262.776 C207.217667,262.651333 207.315333,261.342667 207.386,258.85 C210.09,258.375 212.147,256.021 212.147,253.181 C212.147,249.999 209.567,247.419 206.386,247.419 C203.204,247.419 200.624,249.999 200.624,253.181 C200.624,256.021 202.682,258.375 205.386,258.85 L205.386,261.655 L197.674,269.368 C197.548667,269.492667 197.452333,272.538333 197.385,278.505 L184.557,265.677 L184.557,236.102 L194.768,225.891 C196.054,226.506 197.488,226.861 199.009,226.861 C204.447,226.861 208.856,222.453 208.856,217.014 C208.856,211.575 204.447,207.166 199.009,207.166 C193.57,207.166 189.161,211.575 189.161,217.014 C189.161,220.194 190.676,223.015 193.016,224.815 L182.85,234.981 C182.724667,235.105667 182.627,245.475667 182.557,266.091 C182.557,266.267667 187.500333,271.348667 197.387,281.334 L197.392,291.503 C197.392,291.679667 215.593667,310.019 251.997,346.521 L251.997,390.635 L232.552,371.189 C233.768,370.133 234.54,368.579 234.54,366.842 C234.54,363.659 231.96,361.08 228.778,361.08 C225.597,361.08 223.017,363.659 223.017,366.842 C223.017,370.023 225.597,372.604 228.778,372.604 C229.481,372.604 230.152,372.472 230.774,372.24 L251.997,393.463 L251.997,561.186 L208.877,604.307 C208.751667,604.431667 208.654,607.322667 208.584,612.98 C206.86,613.427 205.584,614.978 205.584,616.836 L205.584,650.586 L213.584,650.586 L213.584,616.836 C213.584,615.066 212.428,613.582 210.834,613.055 L383.981805,582.829513" id="Fill-3" fill="#E6E6E6"></path>
            <path d="M179.501,613.055 L179.251,613.037 L179.251,605.428 L239.704,544.975 C239.892,544.787 239.997,544.533 239.997,544.268 L239.997,436.103 C239.997,435.837 239.892,435.583 239.704,435.396 L222.571,418.263 L222.571,393.424 C222.571,393.158 222.466,392.904 222.278,392.717 L209.093,379.531 L209.093,337.169 C211.797,336.695 213.854,334.34 213.854,331.5 C213.854,328.318 211.274,325.738 208.093,325.738 C204.911,325.738 202.331,328.318 202.331,331.5 C202.331,334.34 204.389,336.695 207.093,337.169 L207.093,379.945 C207.093,380.211 207.198,380.465 207.386,380.652 L220.571,393.838 L220.571,416.263 L205.972,401.663 C205.972,401.662 205.97,401.662 205.97,401.661 L186.011,381.702 L186.011,313.513 C186.011,313.248 185.905,312.993 185.718,312.806 L163.327,290.415 L163.304,207.888 C163.304,207.623 163.198,207.369 163.011,207.181 L157.542,201.712 L157.542,172.427 C160.246,171.952 162.304,169.598 162.304,166.757 C162.304,163.575 159.724,160.996 156.542,160.996 C153.36,160.996 150.78,163.575 150.78,166.757 C150.78,169.598 152.838,171.952 155.542,172.427 L155.542,199.712 L141.006,185.176 C141.662,184.24 142.051,183.103 142.051,181.873 C142.051,178.691 139.471,176.111 136.289,176.111 C133.107,176.111 130.527,178.691 130.527,181.873 C130.527,185.055 133.107,187.635 136.289,187.635 C137.519,187.635 138.656,187.246 139.592,186.59 L161.304,208.302 L161.304,239.255 L105.811,183.762 L105.811,126.501 C105.833,126.502 105.854,126.514 105.876,126.514 C106.132,126.514 106.388,126.416 106.583,126.221 L117.844,114.959 C118.811,115.693 120.012,116.133 121.318,116.133 C124.5,116.133 127.08,113.553 127.08,110.371 C127.08,107.189 124.5,104.609 121.318,104.609 C118.137,104.609 115.557,107.189 115.557,110.371 C115.557,111.523 115.898,112.594 116.481,113.495 L105.811,124.165 L105.811,96.969 C105.811,96.704 105.705,96.449 105.518,96.262 L101.758,92.502 C102.215,91.677 102.477,90.729 102.477,89.718 C102.477,86.536 99.896,83.957 96.715,83.957 C93.533,83.957 90.953,86.536 90.953,89.718 C90.953,92.9 93.533,95.48 96.715,95.48 C98.161,95.48 99.479,94.943 100.491,94.063 L103.811,97.383 L103.811,144.407 L81.573,122.17 L81.573,103.139 C81.573,102.874 81.468,102.619 81.28,102.432 L70.185,91.335 C70.841,90.4 71.229,89.263 71.229,88.033 C71.229,84.851 68.649,82.271 65.468,82.271 C62.286,82.271 59.706,84.851 59.706,88.033 C59.706,91.215 62.286,93.794 65.468,93.794 C66.697,93.794 67.835,93.406 68.771,92.75 L79.573,103.553 L79.573,122.584 C79.573,122.849 79.679,123.104 79.866,123.291 L103.811,147.235 L103.811,184.176 C103.811,184.441 103.916,184.695 104.104,184.883 L133.726,214.505 L121.707,214.505 C121.316,209.423 117.079,205.419 111.897,205.419 C106.459,205.419 102.05,209.827 102.05,215.267 C102.05,220.706 106.459,225.114 111.897,225.114 C116.916,225.114 121.049,221.358 121.659,216.505 L135.726,216.505 L161.304,242.083 L161.327,290.829 C161.327,291.094 161.433,291.349 161.62,291.536 L184.011,313.927 L184.011,361.998 L164.492,342.479 L164.492,322.908 C167.196,322.434 169.254,320.078 169.254,317.238 C169.254,314.057 166.674,311.477 163.492,311.477 C160.311,311.477 157.73,314.057 157.73,317.238 C157.73,320.078 159.788,322.434 162.492,322.908 L162.492,340.479 L142.542,320.529 L142.542,283.977 C145.246,283.502 147.304,281.148 147.304,278.308 C147.304,275.125 144.724,272.546 141.542,272.546 C138.36,272.546 135.78,275.125 135.78,278.308 C135.78,281.148 137.838,283.502 140.542,283.977 L140.542,301.949 L120.568,281.978 L120.568,255.318 C123.42,254.973 125.632,252.548 125.632,249.603 C125.632,246.42 123.052,243.841 119.87,243.841 C116.688,243.841 114.108,246.42 114.108,249.603 C114.108,252.336 116.015,254.62 118.568,255.211 L118.568,282.392 C118.568,282.657 118.674,282.912 118.861,283.099 L140.542,304.777 L140.542,320.943 C140.542,321.209 140.647,321.463 140.835,321.65 L183.979,364.794 C183.988,364.804 184.001,364.807 184.011,364.815 L184.011,379.702 L165.437,361.128 C165.249,360.94 164.995,360.835 164.729,360.835 L149.198,360.835 L149.198,355.178 C149.198,354.912 149.093,354.658 148.905,354.471 L134.619,340.185 C135.126,339.327 135.422,338.33 135.422,337.262 C135.422,334.079 132.842,331.5 129.66,331.5 C126.479,331.5 123.898,334.079 123.898,337.262 C123.898,340.444 126.479,343.023 129.66,343.023 C131.05,343.023 132.323,342.531 133.319,341.713 L147.198,355.592 L147.198,360.835 L124.225,360.835 L106.876,343.486 L106.876,289.69 C106.876,289.425 106.771,289.17 106.583,288.983 L84.184,266.584 L84.184,239.04 C86.888,238.565 88.945,236.21 88.945,233.37 C88.945,230.188 86.365,227.608 83.184,227.608 C80.002,227.608 77.422,230.188 77.422,233.37 C77.422,236.21 79.479,238.565 82.184,239.04 L82.184,264.584 L51.008,233.409 L51.008,218.213 L71.944,197.276 C72.132,197.089 72.237,196.834 72.237,196.569 L72.237,163.391 C75.148,163.102 77.422,160.646 77.422,157.659 C77.422,154.477 74.842,151.897 71.66,151.897 C68.479,151.897 65.898,154.477 65.898,157.659 C65.898,160.349 67.745,162.602 70.237,163.236 L70.237,196.155 L51.008,215.385 L51.008,191.014 C51.008,190.749 50.902,190.494 50.715,190.307 L42.689,182.281 L42.689,142.061 C42.689,142.029 42.675,142.002 42.671,141.971 C45.385,141.504 47.451,139.146 47.451,136.299 C47.451,133.117 44.871,130.537 41.689,130.537 C38.508,130.537 35.928,133.117 35.928,136.299 C35.928,139.146 37.994,141.504 40.708,141.971 C40.705,142.002 40.689,142.029 40.689,142.061 L40.689,180.281 L23.608,163.201 C24.156,162.319 24.477,161.283 24.477,160.169 C24.477,156.987 21.897,154.407 18.716,154.407 C15.534,154.407 12.954,156.987 12.954,160.169 C12.954,163.351 15.534,165.931 18.716,165.931 C20.06,165.931 21.294,165.466 22.274,164.694 L49.008,191.428 L49.008,222.684 L35.956,222.684 L27.808,214.535 C28.464,213.6 28.852,212.462 28.852,211.232 C28.852,208.05 26.272,205.471 23.091,205.471 C19.909,205.471 17.329,208.05 17.329,211.232 C17.329,214.415 19.909,216.994 23.091,216.994 C24.32,216.994 25.458,216.605 26.394,215.949 L34.835,224.391 C35.022,224.578 35.276,224.684 35.542,224.684 L49.008,224.684 L49.008,233.823 C49.008,234.088 49.113,234.342 49.301,234.53 L82.475,267.703 C82.476,267.705 82.478,267.706 82.479,267.708 L85.267,270.495 L39.464,270.495 L17.478,248.509 C19.279,246.725 20.397,244.25 20.397,241.514 C20.397,236.075 15.988,231.666 10.55,231.666 C5.111,231.666 0.702,236.075 0.702,241.514 C0.702,246.953 5.111,251.361 10.55,251.361 C12.528,251.361 14.366,250.772 15.909,249.769 L38.343,272.202 C38.53,272.39 38.784,272.495 39.05,272.495 L87.267,272.495 L104.876,290.104 L104.876,341.486 L95.236,331.847 C95.978,330.878 96.422,329.671 96.422,328.356 C96.422,325.174 93.842,322.595 90.66,322.595 C87.479,322.595 84.898,325.174 84.898,328.356 C84.898,331.539 87.479,334.118 90.66,334.118 C91.805,334.118 92.869,333.78 93.766,333.204 L105.168,344.606 C105.169,344.607 105.169,344.607 105.17,344.608 L110.901,350.34 L69.81,350.34 L38.483,319.014 C39.271,318.028 39.745,316.781 39.745,315.421 C39.745,312.238 37.165,309.659 33.983,309.659 C30.802,309.659 28.222,312.238 28.222,315.421 C28.222,318.604 30.802,321.183 33.983,321.183 C35.082,321.183 36.105,320.87 36.978,320.337 L68.688,352.047 C68.876,352.234 69.13,352.34 69.396,352.34 L112.901,352.34 L123.104,362.542 C123.291,362.729 123.545,362.835 123.811,362.835 L164.315,362.835 L202.85,401.369 L171.288,401.369 C171.022,401.369 170.769,401.475 170.581,401.662 L162.786,409.457 C161.545,408.768 160.117,408.371 158.597,408.371 C153.824,408.371 149.954,412.241 149.954,417.014 C149.954,421.786 153.824,425.656 158.597,425.656 C163.369,425.656 167.239,421.786 167.239,417.014 C167.239,414.49 166.15,412.227 164.425,410.646 L171.702,403.369 L204.85,403.369 L237.997,436.517 L237.997,543.854 L177.544,604.307 C177.356,604.494 177.251,604.748 177.251,605.014 L177.251,612.98 C175.527,613.427 174.251,614.978 174.251,616.836 L174.251,650.586 L182.251,650.586 L182.251,616.836 C182.251,615.066 181.095,613.582 179.501,613.055" id="Fill-4" fill="#E6E6E6"></path>
            <path d="M336.5,613.055 L336.25,613.037 L336.25,605.014 C336.25,604.748 336.145,604.494 335.957,604.307 L310.001,578.35 L310.001,336.612 L325.243,321.37 C326.197,322.07 327.371,322.489 328.646,322.489 C331.827,322.489 334.407,319.91 334.407,316.728 C334.407,313.545 331.827,310.966 328.646,310.966 C325.464,310.966 322.884,313.545 322.884,316.728 C322.884,317.912 323.242,319.013 323.855,319.929 L310.001,333.784 L310.001,301.414 L358.411,253.002 C358.599,252.815 358.704,252.561 358.704,252.295 L358.704,218.147 C358.897,217.829 358.897,217.442 358.704,217.124 L358.704,201.683 C361.408,201.208 363.466,198.854 363.466,196.014 C363.466,192.832 360.886,190.252 357.704,190.252 C354.522,190.252 351.942,192.832 351.942,196.014 C351.942,198.854 354,201.208 356.704,201.683 L356.704,215.059 L346.981,205.335 L346.981,189.398 L369.907,166.472 C370.095,166.284 370.2,166.03 370.2,165.765 L370.2,145.925 C372.904,145.451 374.962,143.096 374.962,140.256 C374.962,137.074 372.382,134.494 369.2,134.494 C366.019,134.494 363.438,137.074 363.438,140.256 C363.438,143.096 365.496,145.451 368.2,145.925 L368.2,165.351 L345.274,188.277 C345.087,188.464 344.981,188.719 344.981,188.984 L344.981,205.75 C344.981,206.015 345.087,206.269 345.274,206.457 L356.704,217.887 L356.704,251.881 L337.75,270.836 C337.737,270.821 337.732,270.802 337.719,270.788 L323.884,256.953 L323.884,235.339 C326.588,234.864 328.646,232.51 328.646,229.669 C328.646,226.487 326.065,223.908 322.884,223.908 C319.702,223.908 317.122,226.487 317.122,229.669 C317.122,232.51 319.18,234.864 321.884,235.339 L321.884,257.367 C321.884,257.632 321.989,257.886 322.177,258.074 L336.305,272.202 C336.318,272.216 336.338,272.221 336.353,272.234 L308.294,300.293 C308.106,300.48 308.001,300.735 308.001,301 L308.001,578.889 C308.001,579.316 308.27,579.682 308.647,579.824 L334.25,605.428 L334.25,612.98 C332.526,613.427 331.25,614.978 331.25,616.836 L331.25,650.586 L339.25,650.586 L339.25,616.836 C339.25,615.066 338.086,613.582 336.5,613.055" id="Fill-5" fill="#E6E6E6"></path>
            <path d="M555.736,282.507 C554.646,282.507 553.63,282.816 552.761,283.342 L544.92,275.5 C544.732,275.313 544.479,275.208 544.213,275.208 L532.85,275.208 L549.131,258.926 C550.015,259.478 551.056,259.802 552.175,259.802 C555.356,259.802 557.937,257.223 557.937,254.041 C557.937,250.858 555.356,248.279 552.175,248.279 C548.993,248.279 546.413,250.858 546.413,254.041 C546.413,255.38 546.874,256.609 547.642,257.588 L520.492,284.737 L520.492,270.096 C523.196,269.622 525.254,267.267 525.254,264.427 C525.254,261.245 522.674,258.665 519.492,258.665 C516.311,258.665 513.73,261.245 513.73,264.427 C513.73,267.267 515.788,269.622 518.492,270.096 L518.492,286.514 C518.492,286.58 518.518,286.637 518.53,286.7 L515.784,289.445 L485.711,289.445 L498.242,276.915 C498.43,276.727 498.535,276.473 498.535,276.208 L498.535,260.269 L520.265,238.54 C521.2,239.196 522.338,239.584 523.567,239.584 C526.749,239.584 529.329,237.005 529.329,233.823 C529.329,230.641 526.749,228.061 523.567,228.061 C520.386,228.061 517.806,230.641 517.806,233.823 C517.806,235.053 518.194,236.19 518.851,237.125 L506.395,249.582 L506.395,199.176 L514.318,191.252 L547.456,191.252 C547.93,193.957 550.285,196.014 553.125,196.014 C556.307,196.014 558.887,193.434 558.887,190.252 C558.887,187.07 556.307,184.49 553.125,184.49 C550.285,184.49 547.93,186.547 547.456,189.252 L516.318,189.252 L546.428,159.144 C548.124,160.529 550.29,161.361 552.65,161.361 C558.089,161.361 562.498,156.953 562.498,151.514 C562.498,146.075 558.089,141.666 552.65,141.666 C547.212,141.666 542.803,146.075 542.803,151.514 C542.803,153.871 543.633,156.033 545.015,157.729 L514.931,187.812 C515.016,187.665 514.864,187.716 514.864,187.535 L514.864,160.91 L522.667,153.107 C522.854,152.919 522.96,152.665 522.96,152.4 L522.96,125.421 C525.664,124.947 527.722,122.592 527.722,119.752 C527.722,116.57 525.142,113.99 521.96,113.99 C518.778,113.99 516.198,116.57 516.198,119.752 C516.198,122.592 518.256,124.947 520.96,125.421 L520.96,151.986 L513.157,159.789 C512.97,159.977 512.864,160.231 512.864,160.496 L512.864,190.055 C512.066,190.947 504.688,198.055 504.688,198.055 C504.5,198.242 504.395,198.497 504.395,198.762 L504.395,251.374 C504.395,251.435 504.419,251.488 504.43,251.547 L496.828,259.148 C496.641,259.335 496.535,259.59 496.535,259.855 L496.535,275.793 L482.883,289.445 L464.778,289.445 L476.128,278.096 C476.315,277.908 476.421,277.654 476.421,277.389 L476.421,251.494 L489.237,238.678 L489.237,195.921 C491.941,195.447 493.999,193.092 493.999,190.252 C493.999,187.07 491.419,184.49 488.237,184.49 C485.056,184.49 482.476,187.07 482.476,190.252 C482.476,193.092 484.533,195.447 487.237,195.921 L487.237,237.85 L476.421,248.666 L476.421,236.589 C479.19,236.17 481.315,233.786 481.315,230.899 C481.315,227.717 478.735,225.138 475.554,225.138 C472.372,225.138 469.792,227.717 469.792,230.899 C469.792,233.693 471.782,236.022 474.421,236.548 L474.421,276.975 L461.95,289.445 L451.018,289.445 C450.752,289.445 450.498,289.551 450.311,289.738 L441.659,298.39 L441.659,279.037 L448.033,272.662 C448.969,273.318 450.106,273.707 451.336,273.707 C454.518,273.707 457.098,271.127 457.098,267.945 C457.098,264.764 454.518,262.184 451.336,262.184 C448.154,262.184 445.574,264.764 445.574,267.945 C445.574,269.175 445.963,270.313 446.619,271.248 L439.952,277.916 C439.765,278.103 439.659,278.357 439.659,278.623 L439.659,300.39 L390.696,349.352 L390.696,330.912 C393.268,330.334 395.19,328.041 395.19,325.295 C395.19,322.113 392.61,319.533 389.429,319.533 C386.247,319.533 383.667,322.113 383.667,325.295 C383.667,328.228 385.861,330.645 388.696,331.005 L388.696,365.475 L367.143,387.028 L355.39,375.274 L355.39,368.783 C358.094,368.31 360.151,365.954 360.151,363.114 C360.151,359.933 357.571,357.353 354.39,357.353 C351.208,357.353 348.628,359.933 348.628,363.114 C348.628,365.954 350.686,368.31 353.39,368.783 L353.39,375.688 C353.39,375.954 353.495,376.208 353.683,376.396 L365.729,388.442 L352.512,401.658 C352.509,401.661 352.506,401.664 352.503,401.667 L336.296,417.874 C336.108,418.062 336.003,418.315 336.003,418.581 L336.003,544.268 C336.003,544.533 336.108,544.787 336.296,544.975 L396.749,605.428 L396.749,612.98 C395.026,613.427 393.749,614.978 393.749,616.836 L393.749,650.586 L401.749,650.586 L401.749,616.836 C401.749,615.066 400.585,613.582 398.999,613.055 L398.749,613.037 L398.749,605.014 C398.749,604.748 398.644,604.494 398.456,604.307 L338.003,543.854 L338.003,418.995 L353.629,403.369 L392.08,403.369 C392.554,406.074 394.909,408.131 397.749,408.131 C400.931,408.131 403.511,405.552 403.511,402.369 C403.511,399.188 400.931,396.607 397.749,396.607 C394.909,396.607 392.554,398.665 392.08,401.369 L355.629,401.369 L373.335,383.664 C373.385,383.672 373.43,383.693 373.481,383.693 L435.888,383.693 L448.977,396.782 C448.317,397.72 447.927,398.859 447.927,400.092 C447.927,403.273 450.507,405.854 453.688,405.854 C456.87,405.854 459.45,403.273 459.45,400.092 C459.45,396.91 456.87,394.33 453.688,394.33 C452.462,394.33 451.327,394.717 450.393,395.37 L437.009,381.986 C436.821,381.799 436.567,381.693 436.302,381.693 L408.604,381.693 L415.199,375.1 C415.231,375.07 415.261,375.041 415.29,375.009 L427.464,362.835 L470.024,362.835 C470.29,362.835 470.544,362.729 470.731,362.542 L484.614,348.658 L508.05,348.658 C508.315,348.658 508.569,348.553 508.757,348.365 L527.667,329.455 C528.603,330.111 529.74,330.5 530.97,330.5 C534.151,330.5 536.731,327.92 536.731,324.738 C536.731,321.557 534.151,318.977 530.97,318.977 C527.788,318.977 525.208,321.557 525.208,324.738 C525.208,325.968 525.597,327.105 526.253,328.041 L507.636,346.658 L486.614,346.658 L495.177,338.096 C496.708,339.076 498.524,339.652 500.478,339.652 C505.916,339.652 510.325,335.244 510.325,329.805 C510.325,324.366 505.916,319.957 500.478,319.957 C495.039,319.957 490.63,324.366 490.63,329.805 C490.63,332.565 491.77,335.058 493.6,336.846 L469.61,360.835 L445.425,360.835 L465.623,340.636 C465.811,340.448 465.916,340.194 465.916,339.929 L465.916,324.757 L479.542,311.131 C480.59,312.572 482.284,313.513 484.201,313.513 C487.383,313.513 489.963,310.933 489.963,307.751 C489.963,304.569 487.383,301.989 484.201,301.989 C481.02,301.989 478.439,304.569 478.439,307.751 C478.439,308.256 478.511,308.744 478.634,309.212 L464.209,323.636 C464.021,323.823 463.916,324.078 463.916,324.343 L463.916,339.515 L442.597,360.835 L427.05,360.835 C426.784,360.835 426.53,360.94 426.343,361.128 L415.546,371.924 L415.546,356.258 L436.59,335.213 C437.51,335.835 438.618,336.198 439.813,336.198 C442.994,336.198 445.574,333.618 445.574,330.437 C445.574,327.255 442.994,324.675 439.813,324.675 C436.631,324.675 434.051,327.255 434.051,330.437 C434.051,331.702 434.464,332.868 435.155,333.819 L413.839,355.137 C413.651,355.324 413.546,355.578 413.546,355.844 L413.546,373.924 L405.776,381.693 L375.306,381.693 L390.403,366.596 C390.591,366.408 390.696,366.154 390.696,365.889 L390.696,352.109 C390.768,352.067 390.843,352.033 390.904,351.972 L451.432,291.445 L516.198,291.445 C516.464,291.445 516.718,291.34 516.905,291.152 L530.87,277.188 C530.904,277.191 530.935,277.208 530.97,277.208 L543.799,277.208 L551.249,284.659 C550.453,285.647 549.975,286.901 549.975,288.269 C549.975,291.451 552.555,294.03 555.736,294.03 C558.918,294.03 561.498,291.451 561.498,288.269 C561.498,285.087 558.918,282.507 555.736,282.507" id="Fill-6" fill="#E6E6E6"></path>
            <path d="M253.997,259.695 L253.997,229.577 C256.701,229.103 258.759,226.748 258.759,223.908 C258.759,220.726 256.179,218.146 252.997,218.146 C249.815,218.146 247.235,220.726 247.235,223.908 C247.235,226.748 249.293,229.103 251.997,229.577 L251.997,257.695 L229.806,235.503 L229.806,182.839 C232.51,182.365 234.567,180.01 234.567,177.17 C234.567,173.988 231.987,171.408 228.806,171.408 C225.624,171.408 223.044,173.988 223.044,177.17 C223.044,180.01 225.102,182.365 227.806,182.839 L227.806,204.627 L211.46,188.282 C211.272,188.094 211.019,187.989 210.753,187.989 L201.158,187.989 L201.158,174.428 C201.158,174.163 201.053,173.909 200.865,173.721 L169.037,141.893 C168.85,141.705 168.596,141.6 168.33,141.6 L141.449,141.6 C140.976,138.895 138.62,136.838 135.78,136.838 C132.599,136.838 130.019,139.417 130.019,142.6 C130.019,145.782 132.599,148.361 135.78,148.361 C138.62,148.361 140.976,146.304 141.449,143.6 L167.916,143.6 L199.158,174.842 L199.158,187.989 L189.262,187.989 C188.441,185.806 186.341,184.25 183.872,184.25 C180.69,184.25 178.11,186.83 178.11,190.012 C178.11,193.194 180.69,195.773 183.872,195.773 C187.054,195.773 189.634,193.194 189.634,190.012 C189.634,190.004 189.633,189.997 189.633,189.989 L210.339,189.989 L227.806,207.455 L227.806,235.917 C227.806,236.182 227.911,236.437 228.099,236.624 L252.289,260.814 C252.29,260.815 252.29,260.816 252.291,260.817 L265.999,274.525 L265.999,578.35 L240.043,604.307 C239.855,604.494 239.75,604.748 239.75,605.014 L239.75,612.98 C238.026,613.427 236.75,614.978 236.75,616.836 L236.75,650.586 L244.75,650.586 L244.75,616.836 C244.75,615.066 243.594,613.582 242,613.055 L241.75,613.037 L241.75,605.428 L267.353,579.824 C267.73,579.682 267.999,579.316 267.999,578.889 L267.999,274.111 C267.999,273.846 267.894,273.591 267.706,273.404 L253.997,259.695" id="Fill-7" fill="#E6E6E6"></path>
            <mask id="mask-2" fill="white">
                <use xlink:href="#path-1"></use>
            </mask>
            <use id="Fill-8" fill="#E6E6E6" xlink:href="#path-1"></use>
        </g>
    </g>
</svg>